G75*
G70*
%OFA0B0*%
%FSLAX24Y24*%
%IPPOS*%
%LPD*%
%AMOC8*
5,1,8,0,0,1.08239X$1,22.5*
%
%ADD10C,0.0030*%
%ADD11C,0.0020*%
%ADD12C,0.0050*%
%ADD13C,0.0120*%
%ADD14C,0.0060*%
%ADD15R,0.0200X0.0200*%
D10*
X001778Y002332D02*
X001953Y002332D01*
X001953Y002507D01*
X001778Y002682D01*
X001995Y002636D02*
X001995Y002724D01*
X002126Y002855D01*
X002255Y002897D02*
X002255Y002984D01*
X002386Y003115D01*
X002430Y002984D02*
X002343Y002897D01*
X002255Y002897D01*
X002257Y002724D02*
X002169Y002724D01*
X002082Y002636D01*
X001995Y002636D01*
X002126Y002506D02*
X002257Y002636D01*
X002257Y002724D01*
X002386Y002766D02*
X002517Y002897D01*
X002517Y002984D01*
X002430Y002984D01*
X002056Y003411D02*
X001794Y003673D01*
X001923Y003715D02*
X001923Y003802D01*
X002011Y003890D01*
X002098Y003890D01*
X002272Y003715D02*
X002272Y003628D01*
X002185Y003541D01*
X002098Y003541D01*
X001923Y003715D01*
X002056Y003411D02*
X001619Y003498D01*
X001881Y003237D01*
X001604Y002507D02*
X001778Y002332D01*
X001858Y004252D02*
X001596Y004514D01*
X002033Y004427D01*
X001771Y004689D01*
X001901Y004731D02*
X002075Y004556D01*
X002162Y004556D01*
X002250Y004644D01*
X002250Y004731D01*
X002075Y004905D02*
X001988Y004905D01*
X001900Y004818D01*
X001901Y004731D01*
X001953Y005332D02*
X001778Y005332D01*
X001604Y005507D01*
X001778Y005682D02*
X001953Y005507D01*
X001953Y005332D01*
X002082Y005549D02*
X002169Y005549D01*
X002300Y005680D01*
X002343Y005810D02*
X002430Y005810D01*
X002561Y005940D01*
X002386Y006115D02*
X002255Y005984D01*
X002255Y005897D01*
X002343Y005810D01*
X002126Y005855D02*
X001995Y005724D01*
X001995Y005636D01*
X002082Y005549D01*
X008691Y005936D02*
X008953Y005674D01*
X008822Y005805D02*
X008997Y005980D01*
X008866Y006111D02*
X009128Y005849D01*
X009214Y005935D02*
X009301Y006022D01*
X009257Y005978D02*
X008995Y006240D01*
X008952Y006197D01*
X009256Y006239D02*
X009256Y006327D01*
X009387Y006458D01*
X009300Y006545D02*
X009562Y006283D01*
X009431Y006152D01*
X009344Y006152D01*
X009256Y006239D01*
X009170Y005410D02*
X009083Y005410D01*
X008995Y005323D01*
X008995Y005236D01*
X009170Y005061D01*
X009257Y005061D01*
X009345Y005149D01*
X009345Y005236D01*
X009170Y005410D01*
X008910Y005150D02*
X008822Y005150D01*
X008735Y005063D01*
X008735Y004976D01*
X008779Y004932D01*
X008866Y004932D01*
X008953Y005019D01*
X009041Y005019D01*
X009084Y004975D01*
X009084Y004888D01*
X008997Y004801D01*
X008910Y004801D01*
X009039Y004367D02*
X008952Y004280D01*
X008995Y004323D02*
X009257Y004061D01*
X009214Y004018D02*
X009301Y004105D01*
X009084Y003975D02*
X009084Y003888D01*
X008997Y003801D01*
X008910Y003801D01*
X008866Y003932D02*
X008779Y003932D01*
X008735Y003976D01*
X008735Y004063D01*
X008822Y004150D01*
X008910Y004150D01*
X008953Y004019D02*
X009041Y004019D01*
X009084Y003975D01*
X008953Y004019D02*
X008866Y003932D01*
X009118Y003375D02*
X009205Y003375D01*
X009293Y003288D01*
X009293Y003201D01*
X009162Y003070D01*
X009249Y002982D02*
X008987Y003244D01*
X009118Y003375D01*
X008901Y003158D02*
X009163Y002896D01*
X008989Y002896D01*
X008989Y002722D01*
X008727Y002984D01*
X009118Y002375D02*
X009031Y002288D01*
X009031Y002201D01*
X009074Y002157D01*
X009162Y002157D01*
X009249Y002244D01*
X009336Y002244D01*
X009380Y002201D01*
X009380Y002113D01*
X009293Y002026D01*
X009205Y002026D01*
X009120Y001940D02*
X009120Y001853D01*
X009032Y001766D01*
X008945Y001766D01*
X008770Y001940D01*
X008770Y002027D01*
X008858Y002115D01*
X008945Y002115D01*
X009118Y002375D02*
X009205Y002375D01*
X009364Y001938D02*
X009364Y001589D01*
X009364Y001676D02*
X009625Y001676D01*
X009451Y001501D02*
X009189Y001763D01*
X009147Y001634D02*
X009059Y001634D01*
X008972Y001546D01*
X008972Y001459D01*
X009147Y001285D01*
X009234Y001285D01*
X009321Y001372D01*
X009321Y001459D01*
X009061Y001199D02*
X009017Y001242D01*
X008930Y001242D01*
X008843Y001155D01*
X008755Y001155D01*
X008712Y001199D01*
X008712Y001286D01*
X008799Y001373D01*
X008886Y001373D01*
X009061Y001199D02*
X009061Y001111D01*
X008974Y001024D01*
X008886Y001024D01*
D11*
X002489Y006194D02*
X002452Y006157D01*
X002415Y006157D01*
X002379Y006231D02*
X002489Y006231D01*
X002489Y006194D02*
X002489Y006378D01*
X002342Y006378D02*
X002342Y006267D01*
X002379Y006231D01*
X002268Y006231D02*
X002231Y006267D01*
X002231Y006414D01*
X002194Y006378D02*
X002268Y006378D01*
X002305Y006511D02*
X002378Y006511D01*
X002342Y006511D02*
X002342Y006731D01*
X002305Y006731D01*
X002231Y006694D02*
X002194Y006731D01*
X002121Y006731D01*
X002084Y006694D01*
X002084Y006547D01*
X002121Y006511D01*
X002194Y006511D01*
X002231Y006547D01*
X002084Y006488D02*
X002084Y006451D01*
X002084Y006378D02*
X002084Y006231D01*
X002047Y006231D02*
X002121Y006231D01*
X002084Y006378D02*
X002047Y006378D01*
X001973Y006378D02*
X001863Y006378D01*
X001826Y006341D01*
X001863Y006304D01*
X001936Y006304D01*
X001973Y006267D01*
X001936Y006231D01*
X001826Y006231D01*
X001752Y006378D02*
X001715Y006378D01*
X001642Y006304D01*
X001642Y006231D02*
X001642Y006378D01*
X001568Y006341D02*
X001568Y006304D01*
X001421Y006304D01*
X001421Y006267D02*
X001421Y006341D01*
X001458Y006378D01*
X001531Y006378D01*
X001568Y006341D01*
X001458Y006231D02*
X001421Y006267D01*
X001458Y006231D02*
X001531Y006231D01*
X001347Y006378D02*
X001273Y006231D01*
X001200Y006378D01*
X001089Y006378D02*
X001089Y006231D01*
X001053Y006231D02*
X001126Y006231D01*
X000979Y006231D02*
X000979Y006341D01*
X000942Y006378D01*
X000832Y006378D01*
X000832Y006231D01*
X000758Y006267D02*
X000758Y006451D01*
X000721Y006511D02*
X000647Y006511D01*
X000611Y006547D01*
X000647Y006621D02*
X000721Y006621D01*
X000758Y006584D01*
X000758Y006547D01*
X000721Y006511D01*
X000832Y006547D02*
X000868Y006584D01*
X000979Y006584D01*
X000979Y006621D02*
X000979Y006511D01*
X000868Y006511D01*
X000832Y006547D01*
X000942Y006658D02*
X000979Y006621D01*
X000942Y006658D02*
X000868Y006658D01*
X000758Y006694D02*
X000721Y006731D01*
X000647Y006731D01*
X000611Y006694D01*
X000611Y006658D01*
X000647Y006621D01*
X000611Y006451D02*
X000611Y006267D01*
X000647Y006231D01*
X000721Y006231D01*
X000758Y006267D01*
X001053Y006378D02*
X001089Y006378D01*
X001089Y006451D02*
X001089Y006488D01*
X001053Y006511D02*
X001053Y006658D01*
X001163Y006658D01*
X001200Y006621D01*
X001200Y006511D01*
X001274Y006547D02*
X001274Y006621D01*
X001310Y006658D01*
X001421Y006658D01*
X001421Y006731D02*
X001421Y006511D01*
X001310Y006511D01*
X001274Y006547D01*
X001495Y006511D02*
X001568Y006511D01*
X001531Y006511D02*
X001531Y006658D01*
X001495Y006658D01*
X001531Y006731D02*
X001531Y006768D01*
X001679Y006658D02*
X001752Y006658D01*
X001789Y006621D01*
X001789Y006511D01*
X001679Y006511D01*
X001642Y006547D01*
X001679Y006584D01*
X001789Y006584D01*
X002452Y006511D02*
X002526Y006511D01*
X002489Y006511D02*
X002489Y006658D01*
X002452Y006658D01*
X002489Y006731D02*
X002489Y006768D01*
X002600Y006658D02*
X002710Y006658D01*
X002746Y006621D01*
X002746Y006511D01*
X002821Y006511D02*
X002894Y006511D01*
X002857Y006511D02*
X002857Y006658D01*
X002821Y006658D01*
X002857Y006731D02*
X002857Y006768D01*
X003005Y006658D02*
X002968Y006621D01*
X002968Y006547D01*
X003005Y006511D01*
X003115Y006511D01*
X003078Y006451D02*
X003041Y006414D01*
X003041Y006231D01*
X002931Y006267D02*
X002931Y006341D01*
X002894Y006378D01*
X002820Y006378D01*
X002784Y006341D01*
X002784Y006267D01*
X002820Y006231D01*
X002894Y006231D01*
X002931Y006267D01*
X003005Y006341D02*
X003078Y006341D01*
X003373Y006267D02*
X003410Y006231D01*
X003483Y006231D01*
X003520Y006267D01*
X003520Y006451D01*
X003557Y006511D02*
X003410Y006511D01*
X003557Y006658D01*
X003557Y006694D01*
X003520Y006731D01*
X003447Y006731D01*
X003410Y006694D01*
X003631Y006694D02*
X003631Y006547D01*
X003778Y006694D01*
X003778Y006547D01*
X003741Y006511D01*
X003668Y006511D01*
X003631Y006547D01*
X003631Y006414D02*
X003631Y006267D01*
X003667Y006231D01*
X003741Y006267D02*
X003778Y006304D01*
X003888Y006304D01*
X003888Y006341D02*
X003888Y006231D01*
X003778Y006231D01*
X003741Y006267D01*
X003778Y006378D02*
X003851Y006378D01*
X003888Y006341D01*
X003962Y006341D02*
X003999Y006378D01*
X004072Y006378D01*
X004109Y006341D01*
X004109Y006231D01*
X003962Y006231D02*
X003962Y006451D01*
X003962Y006511D02*
X003889Y006511D01*
X003852Y006547D01*
X003999Y006694D01*
X003999Y006547D01*
X003962Y006511D01*
X003852Y006547D02*
X003852Y006694D01*
X003889Y006731D01*
X003962Y006731D01*
X003999Y006694D01*
X004073Y006694D02*
X004110Y006731D01*
X004183Y006731D01*
X004220Y006694D01*
X004220Y006547D01*
X004183Y006511D01*
X004110Y006511D01*
X004073Y006547D01*
X004110Y006621D02*
X004220Y006621D01*
X004294Y006621D02*
X004441Y006621D01*
X004515Y006694D02*
X004552Y006731D01*
X004625Y006731D01*
X004662Y006694D01*
X004662Y006658D01*
X004515Y006511D01*
X004662Y006511D01*
X004736Y006547D02*
X004883Y006694D01*
X004883Y006547D01*
X004846Y006511D01*
X004773Y006511D01*
X004736Y006547D01*
X004736Y006694D01*
X004773Y006731D01*
X004846Y006731D01*
X004883Y006694D01*
X004957Y006658D02*
X005030Y006731D01*
X005030Y006511D01*
X004957Y006511D02*
X005104Y006511D01*
X005178Y006547D02*
X005325Y006694D01*
X005325Y006547D01*
X005288Y006511D01*
X005214Y006511D01*
X005178Y006547D01*
X005178Y006694D01*
X005214Y006731D01*
X005288Y006731D01*
X005325Y006694D01*
X005811Y006658D02*
X005884Y006731D01*
X005884Y006511D01*
X005811Y006511D02*
X005958Y006511D01*
X006032Y006547D02*
X006068Y006511D01*
X006142Y006511D01*
X006179Y006547D01*
X006179Y006621D01*
X006105Y006621D01*
X006032Y006694D02*
X006032Y006547D01*
X006032Y006694D02*
X006068Y006731D01*
X006142Y006731D01*
X006179Y006694D01*
X006253Y006658D02*
X006363Y006658D01*
X006400Y006621D01*
X006400Y006547D01*
X006363Y006511D01*
X006253Y006511D01*
X006253Y006731D01*
X006216Y006358D02*
X006289Y006211D01*
X006363Y006358D01*
X006437Y006247D02*
X006474Y006247D01*
X006474Y006211D01*
X006437Y006211D01*
X006437Y006247D01*
X006142Y006284D02*
X005995Y006284D01*
X005995Y006247D02*
X005995Y006321D01*
X006032Y006358D01*
X006105Y006358D01*
X006142Y006321D01*
X006142Y006284D01*
X006105Y006211D02*
X006032Y006211D01*
X005995Y006247D01*
X005921Y006358D02*
X005884Y006358D01*
X005811Y006284D01*
X005811Y006211D02*
X005811Y006358D01*
X006695Y006511D02*
X006805Y006511D01*
X006841Y006547D01*
X006841Y006584D01*
X006805Y006621D01*
X006695Y006621D01*
X006805Y006621D02*
X006841Y006658D01*
X006841Y006694D01*
X006805Y006731D01*
X006695Y006731D01*
X006695Y006511D01*
X006842Y006431D02*
X006842Y006211D01*
X006915Y006211D02*
X006768Y006211D01*
X006768Y006358D02*
X006842Y006431D01*
X006952Y006511D02*
X007026Y006511D01*
X007062Y006547D01*
X007062Y006694D01*
X007026Y006731D01*
X006952Y006731D01*
X006916Y006694D01*
X006916Y006547D01*
X006952Y006511D01*
X007137Y006511D02*
X007247Y006511D01*
X007283Y006547D01*
X007283Y006584D01*
X007247Y006621D01*
X007137Y006621D01*
X007247Y006621D02*
X007283Y006658D01*
X007283Y006694D01*
X007247Y006731D01*
X007137Y006731D01*
X007137Y006511D01*
X007136Y006431D02*
X007210Y006431D01*
X007247Y006394D01*
X007100Y006247D01*
X007136Y006211D01*
X007210Y006211D01*
X007247Y006247D01*
X007247Y006394D01*
X007136Y006431D02*
X007100Y006394D01*
X007100Y006247D01*
X007026Y006247D02*
X007026Y006211D01*
X006989Y006211D01*
X006989Y006247D01*
X007026Y006247D01*
X004110Y006621D02*
X004073Y006658D01*
X004073Y006694D01*
X003778Y006694D02*
X003741Y006731D01*
X003668Y006731D01*
X003631Y006694D01*
X003373Y006451D02*
X003373Y006267D01*
X003594Y006378D02*
X003667Y006378D01*
X003115Y006658D02*
X003005Y006658D01*
X002600Y006658D02*
X002600Y006511D01*
D12*
X001151Y001276D02*
X001151Y000975D01*
X000925Y001201D01*
X001376Y001201D01*
X002684Y000542D02*
X006818Y000542D01*
X006818Y005660D01*
X002684Y005660D01*
X002684Y000542D01*
X008825Y001216D02*
X008900Y001066D01*
X009051Y000915D01*
X009051Y001141D01*
X009126Y001216D01*
X009201Y001216D01*
X009276Y001141D01*
X009276Y000990D01*
X009201Y000915D01*
X009051Y000915D01*
X007476Y005915D02*
X007476Y006216D01*
X007476Y006066D02*
X007025Y006066D01*
X007176Y005915D01*
X001376Y005826D02*
X001376Y005525D01*
X001376Y005676D02*
X000925Y005676D01*
X001076Y005525D01*
D13*
X002751Y005501D02*
X002851Y005601D01*
X003051Y005601D02*
X002751Y005301D01*
X002751Y005101D02*
X003251Y005601D01*
D14*
X001651Y005261D02*
X001651Y004761D01*
X001401Y004511D01*
X001651Y004261D01*
X001651Y003761D01*
X001401Y003511D01*
X001651Y003261D01*
X001651Y002761D01*
X001401Y002511D01*
X001651Y002261D01*
X001651Y001761D01*
X001401Y001511D01*
X000901Y001511D01*
X000651Y001761D01*
X000651Y002261D01*
X000901Y002511D01*
X000651Y002761D01*
X000651Y003261D01*
X000901Y003511D01*
X000651Y003761D01*
X000651Y004261D01*
X000901Y004511D01*
X000651Y004761D01*
X000651Y005261D01*
X000901Y005511D01*
X001401Y005511D01*
X001651Y005261D01*
X007651Y005351D02*
X007651Y004851D01*
X007901Y004601D01*
X007651Y004351D01*
X007651Y003851D01*
X007901Y003601D01*
X007651Y003351D01*
X007651Y002851D01*
X007901Y002601D01*
X007651Y002351D01*
X007651Y001851D01*
X007901Y001601D01*
X007651Y001351D01*
X007651Y000851D01*
X007901Y000601D01*
X008401Y000601D01*
X008651Y000851D01*
X008651Y001351D01*
X008401Y001601D01*
X008651Y001851D01*
X008651Y002351D01*
X008401Y002601D01*
X008651Y002851D01*
X008651Y003351D01*
X008401Y003601D01*
X008651Y003851D01*
X008651Y004351D01*
X008401Y004601D01*
X008651Y004851D01*
X008651Y005351D01*
X008401Y005601D01*
X008651Y005851D01*
X008651Y006351D01*
X008401Y006601D01*
X007901Y006601D01*
X007651Y006351D01*
X007651Y005851D01*
X007901Y005601D01*
X007651Y005351D01*
D15*
X008151Y005101D03*
X008151Y006101D03*
X008151Y004101D03*
X008151Y003101D03*
X008151Y002101D03*
X008151Y001101D03*
X001151Y002011D03*
X001151Y003011D03*
X001151Y004011D03*
X001151Y005011D03*
M02*
