G75*
G70*
%OFA0B0*%
%FSLAX24Y24*%
%IPPOS*%
%LPD*%
%AMOC8*
5,1,8,0,0,1.08239X$1,22.5*
%
%ADD10R,0.0354X0.0276*%
%ADD11R,0.0276X0.0354*%
%ADD12R,0.0689X0.0689*%
%ADD13R,0.0146X0.0256*%
%ADD14R,0.0256X0.0146*%
%ADD15R,0.0098X0.0197*%
%ADD16R,0.0197X0.0098*%
%ADD17R,0.0906X0.0906*%
%ADD18R,0.0197X0.0276*%
%ADD19R,0.0709X0.0315*%
%ADD20R,0.0630X0.0118*%
%ADD21R,0.0709X0.0118*%
%ADD22C,0.0640*%
%ADD23R,0.0402X0.0161*%
%ADD24R,0.0472X0.0315*%
%ADD25C,0.0080*%
%ADD26C,0.0400*%
D10*
X004079Y000856D03*
X004079Y001368D03*
X006979Y002256D03*
X006979Y002768D03*
X006979Y003656D03*
X006979Y004168D03*
X007679Y004168D03*
X007679Y003656D03*
X008379Y003656D03*
X008379Y004168D03*
X009379Y005856D03*
X009379Y006368D03*
X009179Y007556D03*
X009179Y008068D03*
X008479Y008068D03*
X008479Y007556D03*
X007779Y007556D03*
X007779Y008068D03*
X007079Y008068D03*
X007079Y007556D03*
X006379Y007556D03*
X006379Y008068D03*
X005679Y008068D03*
X005679Y007556D03*
X002879Y006168D03*
X002879Y005656D03*
X002579Y009356D03*
X002579Y009868D03*
X009066Y001368D03*
X009066Y000856D03*
D11*
X008935Y002712D03*
X008423Y002712D03*
X009523Y005012D03*
X010035Y005012D03*
X008835Y008912D03*
X008323Y008912D03*
X007035Y008912D03*
X006523Y008912D03*
X004635Y008212D03*
X004123Y008212D03*
X004123Y007412D03*
X004635Y007412D03*
X005323Y006312D03*
X005835Y006312D03*
D12*
X002479Y007812D03*
D13*
X002351Y007123D03*
X002095Y007123D03*
X002607Y007123D03*
X002863Y007123D03*
X002863Y008501D03*
X002607Y008501D03*
X002351Y008501D03*
X002095Y008501D03*
D14*
X001790Y008196D03*
X001790Y007940D03*
X001790Y007684D03*
X001790Y007428D03*
X003168Y007428D03*
X003168Y007684D03*
X003168Y007940D03*
X003168Y008196D03*
D15*
X006987Y006590D03*
X007184Y006590D03*
X007381Y006590D03*
X007577Y006590D03*
X007774Y006590D03*
X007971Y006590D03*
X007971Y005133D03*
X007774Y005133D03*
X007577Y005133D03*
X007381Y005133D03*
X007184Y005133D03*
X006987Y005133D03*
D16*
X006751Y005370D03*
X006751Y005566D03*
X006751Y005763D03*
X006751Y005960D03*
X006751Y006157D03*
X006751Y006354D03*
X008207Y006354D03*
X008207Y006157D03*
X008207Y005960D03*
X008207Y005763D03*
X008207Y005566D03*
X008207Y005370D03*
D17*
X007479Y005862D03*
D18*
X006253Y003884D03*
X005505Y003884D03*
X005505Y002939D03*
X006253Y002939D03*
D19*
X001609Y003906D03*
X001609Y000757D03*
X011249Y011517D03*
X011249Y014666D03*
D20*
X000900Y001446D03*
X000900Y001643D03*
X000900Y001840D03*
X000900Y002036D03*
X000900Y002233D03*
X000900Y002430D03*
X000900Y002627D03*
X000900Y002824D03*
X000900Y003021D03*
X000900Y003217D03*
X002318Y003217D03*
X002318Y003021D03*
X002318Y002824D03*
X002318Y002627D03*
X002318Y002430D03*
X002318Y002233D03*
X002318Y002036D03*
X002318Y001840D03*
X002318Y001643D03*
X010540Y012403D03*
X010540Y012600D03*
X010540Y012796D03*
X010540Y012993D03*
X010540Y013190D03*
X010540Y013387D03*
X010540Y013584D03*
X010540Y013781D03*
X010540Y013977D03*
X011958Y013977D03*
X011958Y013781D03*
X011958Y013584D03*
X011958Y013387D03*
X011958Y013190D03*
X011958Y012993D03*
X011958Y012796D03*
X011958Y012600D03*
X011958Y012403D03*
X011958Y012206D03*
D21*
X010501Y012206D03*
X002357Y001446D03*
D22*
X011529Y005812D03*
X011529Y006812D03*
X011529Y007812D03*
X011529Y008812D03*
X011529Y009812D03*
D23*
X006974Y001396D03*
X006974Y001140D03*
X006974Y000884D03*
X006974Y000628D03*
X005084Y000628D03*
X005084Y000884D03*
X005084Y001140D03*
X005084Y001396D03*
D24*
X007824Y001384D03*
X007824Y000676D03*
D25*
X007639Y000632D01*
X007159Y000632D01*
X006974Y000628D01*
X006799Y000632D01*
X006499Y000632D01*
X005479Y000628D02*
X005479Y001712D01*
X009779Y001712D01*
X009779Y000412D01*
X012479Y000412D01*
X012479Y012612D01*
X011958Y012612D01*
X011958Y012600D01*
X011959Y012632D01*
X011959Y012752D01*
X011958Y012796D01*
X011959Y012812D01*
X011959Y012992D01*
X011958Y012993D01*
X011659Y012992D01*
X011359Y012992D01*
X011359Y013592D02*
X011659Y013592D01*
X011958Y013584D01*
X011959Y013532D01*
X011959Y013412D01*
X011958Y013387D01*
X011959Y013352D01*
X011959Y013232D01*
X011958Y013190D01*
X011239Y009872D02*
X011529Y009812D01*
X011239Y009872D02*
X006739Y009872D01*
X006679Y009932D01*
X006919Y009692D02*
X006859Y009632D01*
X006499Y009632D01*
X005959Y010172D01*
X005959Y010592D01*
X004699Y010592D01*
X004579Y010472D01*
X004399Y010532D01*
X004279Y010532D01*
X001939Y012872D01*
X001999Y011672D02*
X000859Y011672D01*
X000859Y006272D01*
X003739Y003392D01*
X003739Y001912D01*
X007679Y001912D01*
X007679Y002812D01*
X008079Y002812D01*
X008079Y003272D01*
X008059Y003272D01*
X008419Y003572D02*
X008419Y002852D01*
X008423Y002712D01*
X008839Y002852D02*
X008839Y003152D01*
X008779Y003332D01*
X008839Y003512D01*
X009919Y003512D01*
X009919Y004892D01*
X010035Y005012D01*
X009619Y005132D02*
X009523Y005012D01*
X009619Y005132D02*
X009439Y005312D01*
X010159Y006032D01*
X010159Y007172D01*
X010219Y007352D01*
X010459Y007112D02*
X010519Y007172D01*
X010519Y009692D01*
X006919Y009692D01*
X007519Y009392D02*
X007159Y009032D01*
X007035Y008912D01*
X007039Y008792D01*
X007039Y008192D01*
X007079Y008068D01*
X006679Y008252D02*
X006679Y007652D01*
X006499Y007652D01*
X006379Y007556D01*
X006499Y007472D01*
X006859Y007112D01*
X007339Y007112D01*
X007339Y006632D01*
X007381Y006590D01*
X007577Y006590D02*
X007579Y006632D01*
X007579Y007292D01*
X007399Y007292D01*
X007219Y007472D01*
X007079Y007556D01*
X007159Y006932D02*
X006379Y006932D01*
X005839Y007472D01*
X005679Y007556D01*
X005679Y008068D02*
X005839Y008072D01*
X006259Y008072D01*
X006379Y008068D01*
X006619Y008312D02*
X006679Y008252D01*
X006619Y008312D02*
X005059Y008312D01*
X004639Y008732D01*
X002599Y008732D01*
X002599Y008612D01*
X002607Y008501D01*
X002539Y008492D01*
X002419Y008492D01*
X002351Y008501D01*
X002599Y008732D02*
X002599Y009272D01*
X002579Y009356D01*
X002719Y009452D01*
X002899Y009632D01*
X002899Y010292D01*
X001579Y010292D01*
X001219Y009932D01*
X001219Y006872D01*
X001579Y006872D01*
X001639Y006692D01*
X001519Y007232D02*
X002059Y007232D01*
X002095Y007123D01*
X002119Y007052D01*
X002119Y005612D01*
X002719Y005612D01*
X002879Y005656D01*
X003019Y005672D01*
X003859Y005672D01*
X003859Y004232D01*
X003679Y003932D02*
X002419Y005192D01*
X002179Y005192D01*
X001039Y006332D01*
X001039Y011372D01*
X003199Y011372D01*
X004399Y010172D01*
X005179Y010172D01*
X005599Y010292D02*
X005659Y010292D01*
X005599Y010292D02*
X005599Y008732D01*
X005119Y008732D02*
X003979Y009872D01*
X002579Y009868D02*
X002419Y009752D01*
X001519Y008852D01*
X001519Y008012D01*
X001699Y008012D01*
X001790Y007940D01*
X001759Y007892D01*
X001759Y007712D01*
X001790Y007684D01*
X001699Y007652D01*
X001639Y007652D01*
X001519Y007532D01*
X001519Y007232D01*
X002095Y007123D02*
X002119Y007112D01*
X002299Y007112D01*
X002351Y007123D01*
X002419Y007112D01*
X002539Y007112D01*
X002607Y007123D01*
X002839Y007052D02*
X002863Y007123D01*
X002839Y007052D02*
X002839Y006272D01*
X002879Y006168D01*
X002719Y006032D01*
X002599Y005912D01*
X002419Y005912D01*
X003559Y005852D02*
X004099Y005852D01*
X004219Y005972D01*
X004219Y006512D01*
X004219Y007292D01*
X004123Y007412D01*
X004635Y007412D02*
X004639Y007532D01*
X004639Y008072D01*
X004635Y008212D01*
X004759Y008072D01*
X005539Y008072D01*
X005679Y008068D01*
X006139Y008612D02*
X006259Y008612D01*
X006439Y008792D01*
X006523Y008912D01*
X007519Y009392D02*
X008479Y009392D01*
X008179Y009092D02*
X007879Y009092D01*
X008179Y009092D02*
X008239Y009032D01*
X008323Y008912D01*
X008359Y008792D01*
X008359Y008192D01*
X008479Y008068D01*
X008359Y008072D01*
X007939Y008072D01*
X007779Y008068D01*
X007779Y007556D02*
X007759Y007472D01*
X007759Y007052D01*
X008179Y007052D01*
X008119Y006752D02*
X008359Y006752D01*
X008479Y006872D01*
X008479Y007556D01*
X008599Y007592D01*
X009019Y007592D01*
X009179Y007556D01*
X009619Y007412D02*
X009619Y009392D01*
X008959Y009392D01*
X009019Y009092D02*
X009319Y009092D01*
X009019Y009092D02*
X008959Y009032D01*
X008835Y008912D01*
X008959Y008792D01*
X009019Y008792D01*
X009019Y008192D01*
X009179Y008068D01*
X008119Y006752D02*
X007999Y006632D01*
X007971Y006590D01*
X007774Y006590D02*
X007759Y006632D01*
X007759Y007052D01*
X008299Y006572D02*
X008299Y006392D01*
X008207Y006354D01*
X008207Y006157D02*
X008299Y006152D01*
X008599Y006152D01*
X008599Y006272D01*
X008299Y006572D02*
X009139Y006572D01*
X009259Y006452D01*
X009379Y006368D01*
X009499Y005972D02*
X009559Y005972D01*
X009859Y006272D01*
X009499Y005972D02*
X009379Y005856D01*
X008839Y005912D02*
X009439Y005312D01*
X009079Y005192D02*
X008539Y005732D01*
X008299Y005732D01*
X008207Y005763D01*
X008207Y005960D02*
X008299Y005972D01*
X008359Y005912D01*
X008839Y005912D01*
X008207Y005370D02*
X008119Y005372D01*
X007939Y005372D01*
X007879Y005432D01*
X007479Y005862D01*
X007039Y005432D01*
X006979Y005432D01*
X006859Y005312D01*
X006799Y005372D01*
X006751Y005370D01*
X006859Y005312D02*
X006979Y005192D01*
X006987Y005133D01*
X006979Y005072D01*
X006019Y005072D01*
X006019Y003692D01*
X006319Y003392D01*
X007519Y003392D01*
X007519Y003572D01*
X007679Y003656D01*
X007519Y003392D02*
X007519Y002372D01*
X007099Y002372D01*
X006979Y002256D01*
X006859Y002372D01*
X006079Y002372D01*
X005599Y002852D01*
X005505Y002939D01*
X005479Y003032D01*
X005479Y003752D01*
X005505Y003884D01*
X005719Y003752D02*
X005719Y004172D01*
X004999Y004172D01*
X004459Y003632D01*
X004459Y003932D02*
X003679Y003932D01*
X004459Y003932D02*
X006259Y005732D01*
X006679Y005732D01*
X006751Y005763D01*
X006751Y005960D02*
X006679Y005972D01*
X006019Y005972D01*
X005899Y005852D01*
X005959Y006152D02*
X005835Y006312D01*
X005959Y006152D02*
X006319Y006152D01*
X006319Y006272D01*
X006319Y006152D02*
X006679Y006152D01*
X006751Y006157D01*
X006751Y006354D02*
X006679Y006392D01*
X006439Y006632D01*
X005239Y006632D01*
X005239Y006452D01*
X005323Y006312D01*
X005239Y006152D01*
X004759Y005672D01*
X003859Y005672D01*
X003559Y005852D02*
X003559Y007412D01*
X003319Y007652D01*
X003259Y007652D01*
X003168Y007684D01*
X003168Y008196D02*
X003259Y008192D01*
X003739Y008192D01*
X003739Y006152D01*
X003919Y006152D01*
X004759Y007292D02*
X004635Y007412D01*
X004759Y007292D02*
X005239Y007292D01*
X005239Y006632D01*
X004123Y008212D02*
X004039Y008192D01*
X003739Y008192D01*
X002119Y009992D02*
X001759Y009992D01*
X001519Y009752D01*
X006253Y003884D02*
X006319Y003752D01*
X006859Y003752D01*
X006979Y003656D01*
X006979Y004168D02*
X007099Y004292D01*
X007339Y004292D01*
X007339Y005072D01*
X007381Y005133D01*
X007184Y005133D02*
X007159Y005192D01*
X006979Y005192D01*
X007479Y005862D02*
X007039Y006272D01*
X006979Y006272D01*
X006859Y006392D01*
X006799Y006392D01*
X006751Y006354D01*
X006859Y006392D02*
X006979Y006512D01*
X006987Y006590D01*
X007159Y006632D02*
X007184Y006590D01*
X007159Y006632D02*
X007159Y006932D01*
X007774Y005133D02*
X007759Y005072D01*
X007759Y004712D01*
X007759Y004292D01*
X007679Y004168D01*
X008239Y004292D02*
X008379Y004168D01*
X008239Y004292D02*
X008239Y004712D01*
X007999Y004952D01*
X007999Y005072D01*
X007971Y005133D01*
X008379Y003656D02*
X008419Y003572D01*
X008839Y002852D02*
X008935Y002712D01*
X009799Y002432D02*
X007999Y002432D01*
X007824Y001384D02*
X008059Y001352D01*
X008899Y001352D01*
X009066Y001368D01*
X009066Y000856D02*
X009199Y000752D01*
X009439Y000512D01*
X006979Y002768D02*
X006859Y002852D01*
X006319Y002852D01*
X006253Y002939D01*
X006199Y003032D01*
X006199Y003272D01*
X005719Y003752D01*
X004079Y001368D02*
X003919Y001472D01*
X003559Y001472D01*
X003559Y002632D01*
X002779Y003412D01*
X001959Y003412D01*
X001699Y003152D01*
X001399Y002852D01*
X001159Y002852D01*
X000900Y002824D01*
X000859Y002792D01*
X000859Y002672D01*
X000900Y002627D01*
X000859Y002612D01*
X000859Y002432D01*
X000900Y002430D01*
X000900Y002233D02*
X000859Y002192D01*
X000859Y002072D01*
X000900Y002036D01*
X000859Y002012D01*
X000859Y001892D01*
X000900Y001840D01*
X001451Y001840D01*
X001519Y001772D01*
X001519Y001572D01*
X002279Y000812D01*
X004035Y000812D01*
X004079Y000856D01*
X004307Y000628D01*
X005084Y000628D01*
X005479Y000628D01*
X005084Y000884D02*
X004939Y000932D01*
X004519Y000932D01*
X004219Y001232D01*
X004079Y001368D01*
X010459Y005252D02*
X010459Y007112D01*
D26*
X010219Y007352D03*
X009619Y007412D03*
X009079Y007112D03*
X008599Y006272D03*
X008179Y007052D03*
X009079Y005192D03*
X009859Y006272D03*
X010459Y005252D03*
X008779Y003332D03*
X008059Y003272D03*
X007999Y002432D03*
X006499Y000632D03*
X004459Y003632D03*
X003859Y004232D03*
X002899Y005192D03*
X002419Y005912D03*
X001639Y006692D03*
X003919Y006152D03*
X004219Y006512D03*
X005899Y005852D03*
X006319Y006272D03*
X007759Y004712D03*
X009799Y002432D03*
X009439Y000512D03*
X006139Y008612D03*
X005599Y008732D03*
X005119Y008732D03*
X003979Y009872D03*
X004579Y010472D03*
X005179Y010172D03*
X005659Y010292D03*
X006679Y009932D03*
X007879Y009092D03*
X008479Y009392D03*
X008959Y009392D03*
X009319Y009092D03*
X011359Y012992D03*
X011359Y013592D03*
X004039Y014432D03*
X001939Y012872D03*
X001999Y011672D03*
X002119Y009992D03*
X001519Y009752D03*
X001699Y003152D03*
X001519Y001772D03*
M02*
