%
M48
M72
T01C0.0200
T02C0.0250
T03C0.0400
T04C0.1220
%
T01
X3082Y2432
X4102Y3332
X4822Y3272
X4882Y2432
X6382Y632
X8422Y3632
X9022Y4232
X9982Y5192
X10462Y5912
X11242Y6692
X8962Y6152
X8662Y6512
X6982Y5852
X6562Y6272
X5122Y4712
X3802Y5192
X4282Y6272
X4702Y7052
X3802Y7112
X3262Y7412
X2662Y7352
X3022Y6272
X2422Y5252
X3562Y9092
X3922Y9392
X4402Y9392
X5002Y9092
X6202Y9932
X7222Y10292
X7702Y10172
X8302Y10472
X8902Y9872
X7762Y8732
X7282Y8732
X6742Y8612
X10762Y9992
X11362Y9752
X10882Y11672
X10942Y12872
X8842Y14432
X1522Y13592
X1522Y12992
X11182Y3152
X11362Y1772
X3442Y512
T02
X11862Y1032
X11862Y1032
X11862Y3631
X11862Y3631
X1041Y11792
X1041Y11792
X1041Y14391
X1041Y14391
T03
X1352Y9812
X1352Y8812
X1352Y7812
X1352Y6812
X1352Y5812
T04
X1202Y1212
X11702Y14212
M30
