G75*
G70*
%OFA0B0*%
%FSLAX24Y24*%
%IPPOS*%
%LPD*%
%AMOC8*
5,1,8,0,0,1.08239X$1,22.5*
%
%ADD10C,0.0030*%
%ADD11C,0.0010*%
%ADD12C,0.0080*%
%ADD13C,0.0160*%
%ADD14C,0.0040*%
%ADD15C,0.0050*%
%ADD16C,0.0060*%
D10*
X006316Y013003D02*
X006378Y013003D01*
X006316Y013003D02*
X006255Y013065D01*
X006255Y013374D01*
X006502Y013374D02*
X006502Y013188D01*
X006440Y013127D01*
X006255Y013127D01*
X006624Y013127D02*
X006685Y013188D01*
X006685Y013435D01*
X006747Y013374D02*
X006624Y013374D01*
X006931Y013374D02*
X006931Y013127D01*
X006993Y013127D02*
X006869Y013127D01*
X007114Y013188D02*
X007176Y013250D01*
X007299Y013250D01*
X007361Y013312D01*
X007299Y013374D01*
X007114Y013374D01*
X006993Y013374D02*
X006931Y013374D01*
X006931Y013497D02*
X006931Y013559D01*
X007114Y013188D02*
X007176Y013127D01*
X007361Y013127D01*
X007483Y013374D02*
X007544Y013374D01*
X007668Y013250D01*
X007789Y013250D02*
X008036Y013250D01*
X008036Y013188D02*
X008036Y013312D01*
X007974Y013374D01*
X007851Y013374D01*
X007789Y013312D01*
X007789Y013250D01*
X007851Y013127D02*
X007974Y013127D01*
X008036Y013188D01*
X008158Y013374D02*
X008281Y013127D01*
X008404Y013374D01*
X008588Y013374D02*
X008588Y013127D01*
X008527Y013127D02*
X008650Y013127D01*
X008771Y013127D02*
X008771Y013312D01*
X008833Y013374D01*
X009018Y013374D01*
X009018Y013127D01*
X009140Y013188D02*
X009140Y013497D01*
X009387Y013497D02*
X009387Y013188D01*
X009325Y013127D01*
X009201Y013127D01*
X009140Y013188D01*
X008650Y013374D02*
X008588Y013374D01*
X008588Y013497D02*
X008588Y013559D01*
X007668Y013374D02*
X007668Y013127D01*
X005765Y013188D02*
X005703Y013127D01*
X005580Y013127D01*
X005518Y013188D01*
X005518Y013312D01*
X005580Y013374D01*
X005703Y013374D01*
X005765Y013312D01*
X005765Y013188D01*
X005397Y013312D02*
X005273Y013312D01*
X005335Y013435D02*
X005273Y013497D01*
X005335Y013435D02*
X005335Y013127D01*
X004783Y013188D02*
X004721Y013127D01*
X004598Y013127D01*
X004536Y013188D01*
X004536Y013497D01*
X004415Y013374D02*
X004291Y013374D01*
X004353Y013435D02*
X004353Y013188D01*
X004291Y013127D01*
X004169Y013188D02*
X004107Y013250D01*
X003922Y013250D01*
X003922Y013312D02*
X003922Y013127D01*
X004107Y013127D01*
X004169Y013188D01*
X004107Y013374D02*
X003984Y013374D01*
X003922Y013312D01*
X003801Y013312D02*
X003739Y013374D01*
X003616Y013374D01*
X003554Y013312D01*
X003554Y013127D01*
X003801Y013127D02*
X003801Y013497D01*
X004783Y013497D02*
X004783Y013188D01*
D11*
X003384Y001247D02*
X003384Y001197D01*
X003409Y001172D01*
X003509Y001172D01*
X003534Y001197D01*
X003534Y001247D01*
X003509Y001272D01*
X003509Y001319D02*
X003534Y001344D01*
X003534Y001394D01*
X003509Y001419D01*
X003484Y001419D01*
X003384Y001319D01*
X003384Y001419D01*
X003409Y001272D02*
X003384Y001247D01*
X004177Y002992D02*
X004227Y002992D01*
X004252Y003017D01*
X004252Y003067D02*
X004202Y003092D01*
X004177Y003092D01*
X004152Y003067D01*
X004152Y003017D01*
X004177Y002992D01*
X004252Y003067D02*
X004252Y003142D01*
X004152Y003142D01*
X004349Y003142D02*
X004349Y002992D01*
X004399Y002992D02*
X004299Y002992D01*
X004399Y003092D02*
X004349Y003142D01*
X004446Y003117D02*
X004472Y003142D01*
X004522Y003142D01*
X004547Y003117D01*
X004547Y003017D01*
X004522Y002992D01*
X004472Y002992D01*
X004446Y003017D01*
X004797Y003825D02*
X004772Y003850D01*
X004772Y003900D01*
X004797Y003925D01*
X004772Y003972D02*
X004872Y004072D01*
X004897Y004072D01*
X004922Y004047D01*
X004922Y003997D01*
X004897Y003972D01*
X004897Y003925D02*
X004922Y003900D01*
X004922Y003850D01*
X004897Y003825D01*
X004797Y003825D01*
X004772Y003972D02*
X004772Y004072D01*
X004772Y004119D02*
X004772Y004219D01*
X004772Y004169D02*
X004922Y004169D01*
X004872Y004119D01*
X005472Y004144D02*
X005472Y004194D01*
X005497Y004219D01*
X005522Y004219D01*
X005547Y004194D01*
X005547Y004119D01*
X005497Y004119D01*
X005472Y004144D01*
X005472Y004072D02*
X005472Y003972D01*
X005472Y004022D02*
X005622Y004022D01*
X005572Y003972D01*
X005597Y003925D02*
X005622Y003900D01*
X005622Y003850D01*
X005597Y003825D01*
X005497Y003825D01*
X005472Y003850D01*
X005472Y003900D01*
X005497Y003925D01*
X005547Y004119D02*
X005597Y004169D01*
X005622Y004219D01*
X005597Y002819D02*
X005622Y002794D01*
X005622Y002744D01*
X005597Y002719D01*
X005597Y002672D02*
X005622Y002647D01*
X005622Y002597D01*
X005597Y002572D01*
X005597Y002525D02*
X005622Y002500D01*
X005622Y002450D01*
X005597Y002425D01*
X005497Y002425D01*
X005472Y002450D01*
X005472Y002500D01*
X005497Y002525D01*
X005472Y002572D02*
X005572Y002672D01*
X005597Y002672D01*
X005472Y002672D02*
X005472Y002572D01*
X005472Y002719D02*
X005572Y002819D01*
X005597Y002819D01*
X005472Y002819D02*
X005472Y002719D01*
X004222Y003972D02*
X004222Y004047D01*
X004197Y004072D01*
X004147Y004072D01*
X004122Y004047D01*
X004122Y003972D01*
X004122Y004022D02*
X004072Y004072D01*
X004072Y004119D02*
X004072Y004219D01*
X004072Y004169D02*
X004222Y004169D01*
X004172Y004119D01*
X004222Y003972D02*
X004072Y003972D01*
X003422Y005292D02*
X003372Y005292D01*
X003346Y005317D01*
X003299Y005292D02*
X003199Y005392D01*
X003199Y005417D01*
X003224Y005442D01*
X003274Y005442D01*
X003299Y005417D01*
X003346Y005417D02*
X003372Y005442D01*
X003422Y005442D01*
X003447Y005417D01*
X003447Y005317D01*
X003422Y005292D01*
X003299Y005292D02*
X003199Y005292D01*
X003152Y005317D02*
X003052Y005417D01*
X003052Y005317D01*
X003077Y005292D01*
X003127Y005292D01*
X003152Y005317D01*
X003152Y005417D01*
X003127Y005442D01*
X003077Y005442D01*
X003052Y005417D01*
X003097Y006025D02*
X003072Y006050D01*
X003072Y006100D01*
X003097Y006125D01*
X003072Y006172D02*
X003072Y006272D01*
X003072Y006222D02*
X003222Y006222D01*
X003172Y006172D01*
X003197Y006125D02*
X003222Y006100D01*
X003222Y006050D01*
X003197Y006025D01*
X003097Y006025D01*
X003147Y006319D02*
X003147Y006419D01*
X003222Y006394D02*
X003147Y006319D01*
X003072Y006394D02*
X003222Y006394D01*
X004007Y007467D02*
X003982Y007492D01*
X003982Y007542D01*
X004007Y007567D01*
X004132Y007567D01*
X004107Y007614D02*
X004132Y007639D01*
X004132Y007689D01*
X004107Y007714D01*
X004057Y007689D02*
X004057Y007639D01*
X004082Y007614D01*
X004107Y007614D01*
X004157Y007664D02*
X003957Y007664D01*
X003982Y007639D02*
X003982Y007689D01*
X004007Y007714D01*
X004032Y007714D01*
X004057Y007689D01*
X004057Y007761D02*
X004057Y007836D01*
X004032Y007861D01*
X004007Y007861D01*
X003982Y007836D01*
X003982Y007786D01*
X004007Y007761D01*
X004057Y007761D01*
X004107Y007811D01*
X004132Y007861D01*
X003982Y007639D02*
X004007Y007614D01*
X004007Y007467D02*
X004132Y007467D01*
X004682Y007492D02*
X004682Y007542D01*
X004707Y007567D01*
X004682Y007614D02*
X004682Y007714D01*
X004682Y007664D02*
X004832Y007664D01*
X004782Y007614D01*
X004807Y007567D02*
X004832Y007542D01*
X004832Y007492D01*
X004807Y007467D01*
X004707Y007467D01*
X004682Y007492D01*
X004707Y007761D02*
X004682Y007786D01*
X004682Y007836D01*
X004707Y007861D01*
X004732Y007861D01*
X004757Y007836D01*
X004757Y007811D01*
X004757Y007836D02*
X004782Y007861D01*
X004807Y007861D01*
X004832Y007836D01*
X004832Y007786D01*
X004807Y007761D01*
X005382Y007786D02*
X005407Y007761D01*
X005432Y007761D01*
X005457Y007786D01*
X005457Y007836D01*
X005432Y007861D01*
X005407Y007861D01*
X005382Y007836D01*
X005382Y007786D01*
X005382Y007714D02*
X005382Y007614D01*
X005382Y007664D02*
X005532Y007664D01*
X005482Y007614D01*
X005507Y007567D02*
X005532Y007542D01*
X005532Y007492D01*
X005507Y007467D01*
X005407Y007467D01*
X005382Y007492D01*
X005382Y007542D01*
X005407Y007567D01*
X005482Y007761D02*
X005507Y007761D01*
X005532Y007786D01*
X005532Y007836D01*
X005507Y007861D01*
X005482Y007861D01*
X005457Y007836D01*
X005457Y007786D02*
X005482Y007761D01*
X006057Y007664D02*
X006257Y007664D01*
X006232Y007639D02*
X006232Y007689D01*
X006207Y007714D01*
X006157Y007689D02*
X006157Y007639D01*
X006182Y007614D01*
X006207Y007614D01*
X006232Y007639D01*
X006232Y007567D02*
X006107Y007567D01*
X006082Y007542D01*
X006082Y007492D01*
X006107Y007467D01*
X006232Y007467D01*
X006107Y007614D02*
X006082Y007639D01*
X006082Y007689D01*
X006107Y007714D01*
X006132Y007714D01*
X006157Y007689D01*
X006157Y007761D02*
X006157Y007861D01*
X006232Y007836D02*
X006157Y007761D01*
X006082Y007836D02*
X006232Y007836D01*
X006782Y007761D02*
X006807Y007761D01*
X006907Y007861D01*
X006932Y007861D01*
X006932Y007761D01*
X006932Y007664D02*
X006782Y007664D01*
X006782Y007614D02*
X006782Y007714D01*
X006882Y007614D02*
X006932Y007664D01*
X006907Y007567D02*
X006932Y007542D01*
X006932Y007492D01*
X006907Y007467D01*
X006807Y007467D01*
X006782Y007492D01*
X006782Y007542D01*
X006807Y007567D01*
X007482Y007542D02*
X007482Y007492D01*
X007507Y007467D01*
X007607Y007467D01*
X007632Y007492D01*
X007632Y007542D01*
X007607Y007567D01*
X007582Y007614D02*
X007632Y007664D01*
X007482Y007664D01*
X007482Y007614D02*
X007482Y007714D01*
X007507Y007761D02*
X007607Y007861D01*
X007507Y007861D01*
X007482Y007836D01*
X007482Y007786D01*
X007507Y007761D01*
X007607Y007761D01*
X007632Y007786D01*
X007632Y007836D01*
X007607Y007861D01*
X007507Y007567D02*
X007482Y007542D01*
X008599Y007817D02*
X008699Y007717D01*
X008699Y007692D01*
X008746Y007717D02*
X008772Y007692D01*
X008822Y007692D01*
X008847Y007717D01*
X008847Y007817D01*
X008822Y007842D01*
X008772Y007842D01*
X008746Y007817D01*
X008699Y007842D02*
X008599Y007842D01*
X008599Y007817D01*
X008624Y008492D02*
X008599Y008517D01*
X008599Y008542D01*
X008624Y008567D01*
X008699Y008567D01*
X008699Y008517D01*
X008674Y008492D01*
X008624Y008492D01*
X008699Y008567D02*
X008649Y008617D01*
X008599Y008642D01*
X008746Y008617D02*
X008772Y008642D01*
X008822Y008642D01*
X008847Y008617D01*
X008847Y008517D01*
X008822Y008492D01*
X008772Y008492D01*
X008746Y008517D01*
X010582Y009292D02*
X010582Y009342D01*
X010607Y009367D01*
X010607Y009414D02*
X010582Y009439D01*
X010582Y009489D01*
X010607Y009514D01*
X010657Y009514D01*
X010682Y009489D01*
X010682Y009464D01*
X010657Y009414D01*
X010732Y009414D01*
X010732Y009514D01*
X010707Y009367D02*
X010732Y009342D01*
X010732Y009292D01*
X010707Y009267D01*
X010607Y009267D01*
X010582Y009292D01*
X011002Y008942D02*
X011027Y008967D01*
X011077Y008967D01*
X011102Y008942D01*
X011149Y008942D02*
X011174Y008967D01*
X011224Y008967D01*
X011249Y008942D01*
X011249Y008917D01*
X011224Y008892D01*
X011174Y008892D01*
X011149Y008867D01*
X011149Y008842D01*
X011174Y008817D01*
X011224Y008817D01*
X011249Y008842D01*
X011296Y008842D02*
X011296Y008967D01*
X011199Y008992D02*
X011199Y008792D01*
X011102Y008817D02*
X011002Y008917D01*
X011002Y008942D01*
X011002Y008817D02*
X011102Y008817D01*
X011296Y008842D02*
X011322Y008817D01*
X011372Y008817D01*
X011397Y008842D01*
X011397Y008967D01*
X009697Y006219D02*
X009672Y006219D01*
X009647Y006194D01*
X009647Y006144D01*
X009672Y006119D01*
X009697Y006119D01*
X009722Y006144D01*
X009722Y006194D01*
X009697Y006219D01*
X009647Y006194D02*
X009622Y006219D01*
X009597Y006219D01*
X009572Y006194D01*
X009572Y006144D01*
X009597Y006119D01*
X009622Y006119D01*
X009647Y006144D01*
X009697Y006072D02*
X009722Y006047D01*
X009722Y005997D01*
X009697Y005972D01*
X009597Y005972D01*
X009572Y005997D01*
X009572Y006047D01*
X009597Y006072D01*
X007241Y006007D02*
X007241Y005907D01*
X007216Y005882D01*
X007166Y005882D01*
X007141Y005907D01*
X007094Y005907D02*
X007069Y005882D01*
X007019Y005882D01*
X006994Y005907D01*
X006994Y006007D01*
X007019Y006032D01*
X007069Y006032D01*
X007094Y006007D01*
X007094Y005982D01*
X007069Y005957D01*
X006994Y005957D01*
X007141Y006007D02*
X007166Y006032D01*
X007216Y006032D01*
X007241Y006007D01*
X006164Y008482D02*
X006114Y008482D01*
X006088Y008507D01*
X006041Y008482D02*
X005941Y008482D01*
X005894Y008482D02*
X005794Y008482D01*
X005844Y008482D02*
X005844Y008632D01*
X005894Y008582D01*
X005991Y008632D02*
X005991Y008482D01*
X006041Y008582D02*
X005991Y008632D01*
X006088Y008607D02*
X006114Y008632D01*
X006164Y008632D01*
X006189Y008607D01*
X006189Y008507D01*
X006164Y008482D01*
X004389Y008507D02*
X004364Y008482D01*
X004314Y008482D01*
X004288Y008507D01*
X004241Y008482D02*
X004141Y008482D01*
X004191Y008482D02*
X004191Y008632D01*
X004241Y008582D01*
X004288Y008607D02*
X004314Y008632D01*
X004364Y008632D01*
X004389Y008607D01*
X004389Y008507D01*
X004094Y008507D02*
X004069Y008482D01*
X004019Y008482D01*
X003994Y008507D01*
X003994Y008607D01*
X004019Y008632D01*
X004069Y008632D01*
X004094Y008607D01*
X004094Y008582D01*
X004069Y008557D01*
X003994Y008557D01*
X005387Y000983D02*
X005387Y000882D01*
X005487Y000983D01*
X005512Y000983D01*
X005537Y000958D01*
X005537Y000907D01*
X005512Y000882D01*
X005512Y000835D02*
X005462Y000835D01*
X005437Y000810D01*
X005437Y000735D01*
X005387Y000735D02*
X005537Y000735D01*
X005537Y000810D01*
X005512Y000835D01*
X005437Y000785D02*
X005387Y000835D01*
X009082Y000842D02*
X009107Y000867D01*
X009082Y000842D02*
X009082Y000792D01*
X009107Y000767D01*
X009207Y000767D01*
X009232Y000792D01*
X009232Y000842D01*
X009207Y000867D01*
X009182Y000914D02*
X009232Y000964D01*
X009082Y000964D01*
X009082Y000914D02*
X009082Y001014D01*
D12*
X007403Y001602D02*
X006300Y001602D01*
X006497Y000716D02*
X006514Y000758D01*
X006556Y000775D01*
X006598Y000758D01*
X006615Y000716D01*
X006598Y000674D01*
X006556Y000657D01*
X006514Y000674D01*
X006497Y000716D01*
X006300Y000421D02*
X007403Y000421D01*
X007162Y002772D02*
X006842Y002772D01*
X006522Y003252D02*
X006522Y003572D01*
X006842Y004052D02*
X007162Y004052D01*
X007482Y003572D02*
X007482Y003252D01*
X006307Y004956D02*
X006071Y004956D01*
X006307Y004956D02*
X006307Y005192D01*
X006307Y006531D02*
X006307Y006767D01*
X006071Y006767D01*
X004732Y006767D02*
X004496Y006767D01*
X004496Y006531D01*
X004496Y005192D02*
X004496Y004956D01*
X004732Y004956D01*
X009614Y007024D02*
X009811Y007024D01*
X009614Y007024D02*
X009614Y007221D01*
X009614Y008402D02*
X009614Y008599D01*
X009811Y008599D01*
X010992Y008599D02*
X011189Y008402D01*
X011189Y007221D02*
X011189Y007024D01*
X010992Y007024D01*
D13*
X004672Y006592D03*
D14*
X004419Y006314D02*
X003805Y006314D01*
X003882Y006238D02*
X003882Y006391D01*
X003958Y006468D01*
X004035Y006468D01*
X004112Y006391D01*
X004112Y006238D01*
X004188Y006161D01*
X004265Y006161D01*
X004342Y006238D01*
X004342Y006391D01*
X004265Y006468D01*
X004265Y006621D02*
X004342Y006698D01*
X004342Y006851D01*
X004265Y006928D01*
X004188Y006928D01*
X004112Y006851D01*
X004035Y006928D01*
X003958Y006928D01*
X003882Y006851D01*
X003882Y006698D01*
X003958Y006621D01*
X004112Y006775D02*
X004112Y006851D01*
X003882Y006238D02*
X003958Y006161D01*
X003958Y006007D02*
X004342Y006007D01*
X004342Y005701D02*
X003958Y005701D01*
X003882Y005777D01*
X003882Y005931D01*
X003958Y006007D01*
X007682Y003152D02*
X007758Y003152D01*
X008065Y003459D01*
X008142Y003459D01*
X008142Y003152D01*
X008065Y002999D02*
X008142Y002922D01*
X008142Y002769D01*
X008065Y002692D01*
X007988Y002692D01*
X007912Y002769D01*
X007912Y002922D01*
X007835Y002999D01*
X007758Y002999D01*
X007682Y002922D01*
X007682Y002769D01*
X007758Y002692D01*
X007758Y002539D02*
X007682Y002462D01*
X007682Y002308D01*
X007758Y002232D01*
X008142Y002232D01*
X008142Y002539D02*
X007758Y002539D01*
X007605Y002845D02*
X008219Y002845D01*
X009717Y001702D02*
X009717Y001395D01*
X010024Y001702D01*
X010100Y001702D01*
X010177Y001625D01*
X010177Y001471D01*
X010100Y001395D01*
X010100Y001241D02*
X009947Y001241D01*
X009870Y001164D01*
X009870Y000934D01*
X009717Y000934D02*
X010177Y000934D01*
X010177Y001164D01*
X010100Y001241D01*
X003187Y013608D02*
X002726Y013608D01*
X002880Y013608D02*
X002880Y013838D01*
X002957Y013915D01*
X003110Y013915D01*
X003187Y013838D01*
X003187Y013608D01*
X003033Y014069D02*
X003187Y014222D01*
X002726Y014222D01*
X002726Y014069D02*
X002726Y014375D01*
D15*
X002380Y014509D02*
X002380Y014096D01*
X002380Y014509D02*
X000884Y014509D01*
X000884Y014096D01*
X000884Y012088D02*
X000884Y011674D01*
X002380Y011674D01*
X002380Y012088D01*
X010524Y003749D02*
X010524Y003336D01*
X010524Y003749D02*
X012020Y003749D01*
X012020Y003336D01*
X012020Y001328D02*
X012020Y000914D01*
X010524Y000914D01*
X010524Y001328D01*
D16*
X005293Y001148D02*
X005293Y000912D01*
X004821Y000912D02*
X004821Y001148D01*
M02*
