G75*
G70*
%OFA0B0*%
%FSLAX24Y24*%
%IPPOS*%
%LPD*%
%AMOC8*
5,1,8,0,0,1.08239X$1,22.5*
%
%ADD10C,0.0000*%
%ADD11C,0.0177*%
%ADD12C,0.0600*%
%ADD13C,0.0100*%
%ADD14C,0.0050*%
%ADD15C,0.0046*%
D10*
X000101Y000101D02*
X000101Y007021D01*
X009993Y007021D01*
X009993Y000101D01*
X000101Y000101D01*
D11*
X003333Y001369D03*
X003648Y001369D03*
X003648Y001683D03*
X003333Y001683D03*
X003963Y001998D03*
X004278Y001998D03*
X004593Y001998D03*
X004908Y001998D03*
X005223Y001998D03*
X005538Y001998D03*
X005538Y002313D03*
X005223Y002313D03*
X004908Y002313D03*
X004593Y002313D03*
X004278Y002313D03*
X003963Y002313D03*
X003963Y002628D03*
X004278Y002628D03*
X004593Y002628D03*
X004908Y002628D03*
X005223Y002628D03*
X005538Y002628D03*
X005538Y002943D03*
X005223Y002943D03*
X004908Y002943D03*
X004593Y002943D03*
X004278Y002943D03*
X003963Y002943D03*
X003963Y003258D03*
X004278Y003258D03*
X004593Y003258D03*
X004908Y003258D03*
X005223Y003258D03*
X005538Y003258D03*
X005538Y003573D03*
X005223Y003573D03*
X004908Y003573D03*
X004593Y003573D03*
X004278Y003573D03*
X003963Y003573D03*
X003963Y003888D03*
X004278Y003888D03*
X004593Y003888D03*
X004908Y003888D03*
X005223Y003888D03*
X005538Y003888D03*
X005538Y004203D03*
X005223Y004203D03*
X004908Y004203D03*
X004593Y004203D03*
X004278Y004203D03*
X003963Y004203D03*
X003333Y004518D03*
X003333Y004833D03*
X003648Y004833D03*
X005853Y004833D03*
X005853Y004518D03*
X006168Y004518D03*
X006168Y004833D03*
X006168Y001683D03*
X006168Y001369D03*
X005853Y001369D03*
X005853Y001683D03*
D12*
X007851Y002101D02*
X008451Y002101D01*
X008451Y003101D02*
X007851Y003101D01*
X007851Y004101D02*
X008451Y004101D01*
X008451Y005101D02*
X007851Y005101D01*
X007851Y006101D02*
X008451Y006101D01*
X001451Y005011D02*
X000851Y005011D01*
X000851Y004011D02*
X001451Y004011D01*
X001451Y003011D02*
X000851Y003011D01*
X000851Y002011D02*
X001451Y002011D01*
X007851Y001101D02*
X008451Y001101D01*
D13*
X008151Y001101D02*
X005801Y001101D01*
X004951Y001951D01*
X004908Y001998D01*
X005223Y001998D02*
X005251Y001951D01*
X005451Y001751D01*
X005601Y001751D01*
X005951Y002101D01*
X008151Y002101D01*
X008151Y003101D02*
X007041Y003101D01*
X006251Y002311D01*
X005571Y002311D01*
X005538Y002313D01*
X005381Y002471D02*
X005257Y002343D01*
X005841Y002471D02*
X007471Y004101D01*
X008151Y004101D01*
X008151Y005101D02*
X007841Y005101D01*
X005841Y003101D01*
X005381Y003101D02*
X005223Y002943D01*
X004908Y002943D02*
X004751Y002786D01*
X004593Y002943D02*
X004436Y003101D01*
X003811Y003101D02*
X003501Y003411D01*
X003501Y004151D01*
X005451Y006101D01*
X008151Y006101D01*
X003816Y002786D02*
X001591Y005011D01*
X001151Y005011D01*
X001151Y002011D02*
X001351Y002001D01*
X003951Y002001D01*
X003963Y001998D01*
D14*
X003816Y002786D02*
X004751Y002786D01*
X004436Y003101D02*
X003811Y003101D01*
X005221Y002311D02*
X005257Y002343D01*
X005381Y002471D02*
X005841Y002471D01*
X005841Y003101D02*
X005381Y003101D01*
D15*
X005251Y002351D02*
X005257Y002343D01*
X005251Y002351D02*
X005223Y002313D01*
M02*
