G75*
G70*
%OFA0B0*%
%FSLAX24Y24*%
%IPPOS*%
%LPD*%
%AMOC8*
5,1,8,0,0,1.08239X$1,22.5*
%
%ADD10C,0.1300*%
%ADD11R,0.0434X0.0356*%
%ADD12R,0.0356X0.0434*%
%ADD13R,0.0769X0.0769*%
%ADD14R,0.0226X0.0336*%
%ADD15R,0.0336X0.0226*%
%ADD16R,0.0178X0.0277*%
%ADD17R,0.0277X0.0178*%
%ADD18R,0.0986X0.0986*%
%ADD19R,0.0277X0.0356*%
%ADD20C,0.0330*%
%ADD21R,0.0789X0.0395*%
%ADD22R,0.0710X0.0198*%
%ADD23R,0.0789X0.0198*%
%ADD24C,0.0720*%
%ADD25R,0.0482X0.0241*%
%ADD26R,0.0552X0.0395*%
D10*
X001202Y001212D03*
X011702Y014212D03*
D11*
X010302Y009868D03*
X010302Y009356D03*
X010002Y006168D03*
X010002Y005656D03*
X007202Y007556D03*
X007202Y008068D03*
X006502Y008068D03*
X006502Y007556D03*
X005802Y007556D03*
X005802Y008068D03*
X005102Y008068D03*
X005102Y007556D03*
X004402Y007556D03*
X004402Y008068D03*
X003702Y008068D03*
X003702Y007556D03*
X003502Y006368D03*
X003502Y005856D03*
X004502Y004168D03*
X004502Y003656D03*
X005202Y003656D03*
X005202Y004168D03*
X005902Y004168D03*
X005902Y003656D03*
X005902Y002768D03*
X005902Y002256D03*
X003814Y001368D03*
X003814Y000856D03*
X008802Y000856D03*
X008802Y001368D03*
D12*
X007557Y006312D03*
X007046Y006312D03*
X008246Y007412D03*
X008757Y007412D03*
X008757Y008212D03*
X008246Y008212D03*
X006357Y008912D03*
X005846Y008912D03*
X004557Y008912D03*
X004046Y008912D03*
X003357Y005012D03*
X002846Y005012D03*
X003946Y002712D03*
X004457Y002712D03*
D13*
X010402Y007812D03*
D14*
X010530Y007123D03*
X010785Y007123D03*
X010274Y007123D03*
X010018Y007123D03*
X010018Y008501D03*
X010274Y008501D03*
X010530Y008501D03*
X010785Y008501D03*
D15*
X011091Y008196D03*
X011091Y007940D03*
X011091Y007684D03*
X011091Y007428D03*
X009713Y007428D03*
X009713Y007684D03*
X009713Y007940D03*
X009713Y008196D03*
D16*
X005894Y006590D03*
X005697Y006590D03*
X005500Y006590D03*
X005303Y006590D03*
X005106Y006590D03*
X004909Y006590D03*
X004909Y005133D03*
X005106Y005133D03*
X005303Y005133D03*
X005500Y005133D03*
X005697Y005133D03*
X005894Y005133D03*
D17*
X006130Y005370D03*
X006130Y005566D03*
X006130Y005763D03*
X006130Y005960D03*
X006130Y006157D03*
X006130Y006354D03*
X004673Y006354D03*
X004673Y006157D03*
X004673Y005960D03*
X004673Y005763D03*
X004673Y005566D03*
X004673Y005370D03*
D18*
X005402Y005862D03*
D19*
X006628Y003884D03*
X007376Y003884D03*
X007376Y002939D03*
X006628Y002939D03*
D20*
X011862Y003631D03*
X011862Y003631D03*
X011862Y001032D03*
X011862Y001032D03*
X001041Y011792D03*
X001041Y011792D03*
X001041Y014391D03*
X001041Y014391D03*
D21*
X001632Y014666D03*
X001632Y011517D03*
X011272Y003906D03*
X011272Y000757D03*
D22*
X011980Y001446D03*
X011980Y001643D03*
X011980Y001840D03*
X011980Y002036D03*
X011980Y002233D03*
X011980Y002430D03*
X011980Y002627D03*
X011980Y002824D03*
X011980Y003021D03*
X011980Y003217D03*
X010563Y003217D03*
X010563Y003021D03*
X010563Y002824D03*
X010563Y002627D03*
X010563Y002430D03*
X010563Y002233D03*
X010563Y002036D03*
X010563Y001840D03*
X010563Y001643D03*
X002340Y012403D03*
X002340Y012600D03*
X002340Y012796D03*
X002340Y012993D03*
X002340Y013190D03*
X002340Y013387D03*
X002340Y013584D03*
X002340Y013781D03*
X002340Y013977D03*
X000923Y013977D03*
X000923Y013781D03*
X000923Y013584D03*
X000923Y013387D03*
X000923Y013190D03*
X000923Y012993D03*
X000923Y012796D03*
X000923Y012600D03*
X000923Y012403D03*
X000923Y012206D03*
D23*
X002380Y012206D03*
X010524Y001446D03*
D24*
X001352Y005812D03*
X001352Y006812D03*
X001352Y007812D03*
X001352Y008812D03*
X001352Y009812D03*
D25*
X005907Y001396D03*
X005907Y001140D03*
X005907Y000884D03*
X005907Y000628D03*
X007796Y000628D03*
X007796Y000884D03*
X007796Y001140D03*
X007796Y001396D03*
D26*
X005057Y001384D03*
X005057Y000676D03*
M02*
