G75*
G70*
%OFA0B0*%
%FSLAX24Y24*%
%IPPOS*%
%LPD*%
%AMOC8*
5,1,8,0,0,1.08239X$1,22.5*
%
%ADD10R,0.0354X0.0276*%
%ADD11R,0.1000X0.0400*%
%ADD12R,0.0472X0.0118*%
%ADD13R,0.0118X0.0472*%
%ADD14R,0.0276X0.0354*%
%ADD15R,0.0189X0.0236*%
%ADD16R,0.0709X0.0315*%
%ADD17R,0.0630X0.0118*%
%ADD18R,0.0709X0.0118*%
%ADD19C,0.0640*%
%ADD20R,0.0260X0.0800*%
%ADD21R,0.0118X0.0512*%
%ADD22R,0.1417X0.0866*%
%ADD23R,0.0276X0.0197*%
%ADD24R,0.0354X0.0354*%
%ADD25C,0.0080*%
%ADD26C,0.0400*%
%ADD27C,0.0243*%
D10*
X004002Y009806D03*
X004002Y010318D03*
X009502Y004668D03*
X009502Y004156D03*
X010202Y004156D03*
X010202Y004668D03*
X010602Y007456D03*
X010602Y007968D03*
D11*
X004002Y012212D03*
X004002Y014812D03*
D12*
X005207Y008488D03*
X005207Y008291D03*
X005207Y008094D03*
X005207Y007897D03*
X005207Y007701D03*
X005207Y007504D03*
X005207Y007307D03*
X005207Y007110D03*
X005207Y006913D03*
X005207Y006716D03*
X005207Y006520D03*
X005207Y006323D03*
X005207Y006126D03*
X005207Y005929D03*
X005207Y005732D03*
X005207Y005535D03*
X009696Y005535D03*
X009696Y005732D03*
X009696Y005929D03*
X009696Y006126D03*
X009696Y006323D03*
X009696Y006520D03*
X009696Y006716D03*
X009696Y006913D03*
X009696Y007110D03*
X009696Y007307D03*
X009696Y007504D03*
X009696Y007701D03*
X009696Y007897D03*
X009696Y008094D03*
X009696Y008291D03*
X009696Y008488D03*
D13*
X008928Y009256D03*
X008731Y009256D03*
X008534Y009256D03*
X008337Y009256D03*
X008141Y009256D03*
X007944Y009256D03*
X007747Y009256D03*
X007550Y009256D03*
X007353Y009256D03*
X007156Y009256D03*
X006959Y009256D03*
X006763Y009256D03*
X006566Y009256D03*
X006369Y009256D03*
X006172Y009256D03*
X005975Y009256D03*
X005975Y004768D03*
X006172Y004768D03*
X006369Y004768D03*
X006566Y004768D03*
X006763Y004768D03*
X006959Y004768D03*
X007156Y004768D03*
X007353Y004768D03*
X007550Y004768D03*
X007747Y004768D03*
X007944Y004768D03*
X008141Y004768D03*
X008337Y004768D03*
X008534Y004768D03*
X008731Y004768D03*
X008928Y004768D03*
D14*
X011546Y004812D03*
X012057Y004812D03*
X012057Y005612D03*
X011546Y005612D03*
X011546Y006312D03*
X012057Y006312D03*
X012057Y007112D03*
X011546Y007112D03*
X011546Y008012D03*
X012057Y008012D03*
X010857Y008812D03*
X010346Y008812D03*
X010257Y009412D03*
X009746Y009412D03*
X007657Y014612D03*
X007146Y014612D03*
X003157Y006862D03*
X002646Y006862D03*
D15*
X002602Y005799D03*
X003102Y005799D03*
X003602Y005799D03*
X004102Y005799D03*
X004102Y002925D03*
X003602Y002925D03*
X003102Y002925D03*
X002602Y002925D03*
D16*
X001632Y011517D03*
X001632Y014666D03*
X011272Y003906D03*
X011272Y000757D03*
D17*
X011980Y001446D03*
X011980Y001643D03*
X011980Y001840D03*
X011980Y002036D03*
X011980Y002233D03*
X011980Y002430D03*
X011980Y002627D03*
X011980Y002824D03*
X011980Y003021D03*
X011980Y003217D03*
X010563Y003217D03*
X010563Y003021D03*
X010563Y002824D03*
X010563Y002627D03*
X010563Y002430D03*
X010563Y002233D03*
X010563Y002036D03*
X010563Y001840D03*
X010563Y001643D03*
X002340Y012403D03*
X002340Y012600D03*
X002340Y012796D03*
X002340Y012993D03*
X002340Y013190D03*
X002340Y013387D03*
X002340Y013584D03*
X002340Y013781D03*
X002340Y013977D03*
X000923Y013977D03*
X000923Y013781D03*
X000923Y013584D03*
X000923Y013387D03*
X000923Y013190D03*
X000923Y012993D03*
X000923Y012796D03*
X000923Y012600D03*
X000923Y012403D03*
X000923Y012206D03*
D18*
X002380Y012206D03*
X010524Y001446D03*
D19*
X001352Y005812D03*
X001352Y006812D03*
X001352Y007812D03*
X001352Y008812D03*
X001352Y009812D03*
D20*
X007002Y011152D03*
X007502Y011152D03*
X008002Y011152D03*
X008502Y011152D03*
X009002Y011152D03*
X009502Y011152D03*
X010002Y011152D03*
X010502Y011152D03*
X010502Y013572D03*
X010002Y013572D03*
X009502Y013572D03*
X009002Y013572D03*
X008502Y013572D03*
X008002Y013572D03*
X007502Y013572D03*
X007002Y013572D03*
D21*
X007097Y002462D03*
X007294Y002462D03*
X007491Y002462D03*
X007687Y002462D03*
X006900Y002462D03*
X006703Y002462D03*
X006506Y002462D03*
X006309Y002462D03*
X006113Y002462D03*
X005916Y002462D03*
D22*
X004813Y001182D03*
X008790Y001182D03*
D23*
X011785Y008612D03*
X012218Y008612D03*
X012218Y009112D03*
X011785Y009112D03*
X011785Y009612D03*
X012218Y009612D03*
X012218Y010112D03*
X011785Y010112D03*
D24*
X011402Y012612D03*
X009802Y014312D03*
X000602Y004312D03*
X000502Y003312D03*
X000502Y002212D03*
D25*
X000622Y002072D01*
X002362Y002072D01*
X003802Y000632D01*
X006082Y000632D01*
X006082Y000812D01*
X006202Y000932D01*
X007942Y000932D01*
X007942Y000692D01*
X008002Y000632D01*
X009622Y000632D01*
X009622Y003092D01*
X010522Y003992D01*
X010522Y005852D01*
X010462Y005912D01*
X009982Y005432D02*
X009982Y005192D01*
X009982Y005432D02*
X009922Y005492D01*
X009696Y005535D01*
X009262Y005972D02*
X008422Y005132D01*
X008182Y005132D01*
X008182Y005072D01*
X008122Y005012D01*
X008122Y004952D01*
X008141Y004768D01*
X008122Y004532D01*
X008122Y001772D01*
X002902Y001772D01*
X001522Y003152D01*
X000622Y003152D01*
X000502Y003312D01*
X000602Y004312D02*
X002962Y001952D01*
X007942Y001952D01*
X007942Y004532D01*
X007944Y004768D01*
X007942Y004952D01*
X007942Y005132D01*
X008962Y006152D01*
X009262Y005972D02*
X009262Y006512D01*
X008662Y006512D01*
X009696Y006716D02*
X009922Y006752D01*
X010042Y006752D01*
X010042Y007112D01*
X011422Y005732D01*
X011546Y005612D01*
X011542Y005492D01*
X011542Y004952D01*
X011546Y004812D01*
X012057Y004812D02*
X012142Y004652D01*
X012442Y004352D01*
X012442Y002852D01*
X012262Y002852D01*
X011980Y002824D01*
X011722Y002852D01*
X011242Y002852D01*
X011242Y002972D01*
X011182Y003152D01*
X011980Y002824D02*
X012022Y002792D01*
X012022Y002672D01*
X011980Y002627D01*
X012022Y002612D01*
X012022Y002432D01*
X011980Y002430D01*
X011980Y002233D02*
X012022Y002192D01*
X012022Y002072D01*
X011980Y002036D01*
X012022Y002012D01*
X012022Y001892D01*
X011980Y001840D01*
X011722Y001832D01*
X011362Y001832D01*
X011362Y001772D01*
X009622Y003092D02*
X009622Y003152D01*
X008362Y004412D01*
X008362Y004532D01*
X008337Y004768D01*
X008534Y004768D02*
X008542Y004772D01*
X008722Y004772D01*
X008731Y004768D01*
X008722Y004532D01*
X008962Y004292D01*
X009022Y004292D01*
X009022Y004232D01*
X009022Y004292D02*
X009382Y004292D01*
X009502Y004156D01*
X009622Y004172D01*
X010042Y004172D01*
X010202Y004156D01*
X010202Y004668D02*
X010042Y004652D01*
X009622Y004652D01*
X009502Y004668D01*
X009382Y004772D01*
X008962Y004772D01*
X008928Y004768D01*
X007747Y004768D02*
X007742Y003352D01*
X007102Y002752D01*
X007097Y002747D01*
X007097Y002462D01*
X006900Y002462D02*
X006922Y002672D01*
X006922Y002792D01*
X007522Y003392D01*
X007522Y004532D01*
X007550Y004768D01*
X007353Y004768D02*
X007342Y004532D01*
X007342Y003452D01*
X006682Y002792D01*
X006682Y002672D01*
X006703Y002462D01*
X006506Y002462D02*
X006502Y002672D01*
X006502Y002852D01*
X007162Y003512D01*
X007162Y004532D01*
X007156Y004768D01*
X006962Y004768D02*
X006962Y003572D01*
X006302Y002912D01*
X006302Y002470D01*
X006309Y002462D01*
X005722Y002132D02*
X005722Y005372D01*
X005782Y005432D01*
X005782Y006992D01*
X005482Y007292D01*
X005422Y007292D01*
X005207Y007307D01*
X005207Y007504D02*
X005422Y007532D01*
X007282Y007532D01*
X007282Y008732D01*
X007462Y008432D02*
X007762Y008732D01*
X007462Y008432D02*
X007462Y006332D01*
X006982Y005852D01*
X006962Y004768D02*
X006959Y004768D01*
X005602Y005492D02*
X005602Y006212D01*
X005482Y006332D01*
X005422Y006332D01*
X005207Y006323D01*
X005207Y006126D02*
X005002Y006092D01*
X004762Y006092D01*
X004462Y005792D01*
X004462Y005132D01*
X003202Y003872D01*
X003202Y003092D01*
X003142Y003032D01*
X003102Y002925D01*
X003602Y002925D02*
X003682Y002852D01*
X004402Y002132D01*
X005722Y002132D01*
X004882Y002432D02*
X005542Y003092D01*
X005542Y005432D01*
X005602Y005492D01*
X005207Y005732D02*
X005002Y005732D01*
X004822Y005732D01*
X004822Y003272D01*
X004102Y003332D02*
X004102Y002925D01*
X003082Y002432D02*
X002662Y002852D01*
X002602Y002925D01*
X002422Y004892D02*
X002422Y005252D01*
X002362Y005552D02*
X002362Y007532D01*
X002722Y007892D01*
X005002Y007892D01*
X005207Y007897D01*
X005207Y007701D02*
X005002Y007712D01*
X004882Y007712D01*
X004402Y007232D01*
X004402Y006392D01*
X004282Y006272D01*
X004102Y005799D02*
X004102Y005012D01*
X003982Y004892D01*
X002422Y004892D01*
X002362Y005552D02*
X002842Y005552D01*
X003022Y005732D01*
X003102Y005799D01*
X003322Y005672D02*
X003322Y005972D01*
X003022Y006272D01*
X002602Y006692D02*
X002602Y005799D01*
X002002Y006012D02*
X001802Y005812D01*
X001352Y005812D01*
X002002Y006012D02*
X002002Y007912D01*
X002202Y008112D01*
X005190Y008112D01*
X005207Y008094D01*
X005207Y008291D02*
X005002Y008312D01*
X001822Y008312D01*
X001822Y007472D01*
X001462Y007112D01*
X001352Y006812D01*
X001352Y007812D02*
X001642Y007952D01*
X001642Y008492D01*
X005002Y008492D01*
X005207Y008488D01*
X005182Y008792D02*
X001642Y008792D01*
X001352Y008812D01*
X002662Y007352D02*
X002662Y006992D01*
X002646Y006862D01*
X002602Y006692D01*
X002962Y007052D02*
X002962Y007592D01*
X003082Y007712D01*
X003802Y007712D01*
X003802Y007112D01*
X003502Y007172D02*
X003262Y007412D01*
X003502Y007172D02*
X003502Y005972D01*
X003562Y005912D01*
X003602Y005799D01*
X003322Y005672D02*
X003802Y005192D01*
X003157Y006862D02*
X003022Y006992D01*
X002962Y007052D01*
X004222Y009092D02*
X004702Y009092D01*
X004702Y009272D01*
X005302Y009872D01*
X005902Y009872D01*
X005902Y010772D01*
X006802Y011672D01*
X009242Y011672D01*
X009242Y010652D01*
X009922Y010652D01*
X009922Y010772D01*
X010002Y011152D01*
X009502Y011152D02*
X009622Y011492D01*
X009622Y011672D01*
X010882Y011672D01*
X010502Y011152D02*
X010582Y010772D01*
X011182Y010772D01*
X011182Y012152D01*
X010102Y013232D01*
X010002Y013572D01*
X009922Y013592D01*
X009622Y013592D01*
X009502Y013572D01*
X009382Y013952D01*
X009262Y014072D01*
X008602Y014072D01*
X008602Y013952D01*
X008502Y013572D01*
X008422Y013592D01*
X008122Y013592D01*
X008002Y013572D01*
X007882Y013592D01*
X007582Y013592D01*
X007502Y013572D01*
X007582Y013952D01*
X007582Y014492D01*
X007657Y014612D01*
X007942Y014792D02*
X007822Y014912D01*
X007282Y014912D01*
X007282Y014732D01*
X007146Y014612D01*
X007042Y014492D01*
X007042Y013952D01*
X007002Y013572D01*
X007942Y014432D02*
X007942Y014792D01*
X007942Y014432D02*
X008842Y014432D01*
X009682Y014432D01*
X009802Y014312D01*
X010942Y012872D02*
X010942Y012752D01*
X011242Y012752D01*
X011402Y012612D01*
X011182Y010772D02*
X012082Y010772D01*
X012082Y010172D01*
X012218Y010112D01*
X012202Y010052D01*
X012202Y009692D01*
X012218Y009612D01*
X012202Y009572D01*
X012202Y009152D01*
X012218Y009112D01*
X012202Y009032D01*
X012202Y008672D01*
X012218Y008612D01*
X012322Y008552D01*
X012322Y007412D01*
X012142Y007232D01*
X012057Y007112D01*
X012082Y006992D01*
X012082Y006452D01*
X012057Y006312D01*
X012082Y006152D01*
X012082Y005732D01*
X012057Y005612D01*
X012082Y005492D01*
X012082Y004952D01*
X012057Y004812D01*
X011546Y006312D02*
X011542Y006452D01*
X011542Y006692D01*
X011242Y006692D01*
X011542Y006692D02*
X011542Y006992D01*
X011546Y007112D01*
X010882Y007232D02*
X010822Y007172D01*
X010222Y007172D01*
X010222Y007472D01*
X009982Y007712D01*
X009922Y007712D01*
X009696Y007701D01*
X009696Y007897D02*
X009922Y007892D01*
X010462Y007892D01*
X010602Y007968D01*
X010882Y007712D02*
X010762Y007592D01*
X010602Y007456D01*
X010882Y007352D02*
X010882Y007232D01*
X010882Y007352D02*
X011422Y007892D01*
X011546Y008012D01*
X011962Y008132D02*
X011962Y008492D01*
X011902Y008552D01*
X011785Y008612D01*
X011662Y009032D02*
X011785Y009112D01*
X011662Y009032D02*
X010882Y008252D01*
X010882Y007712D01*
X010042Y008492D02*
X010222Y008672D01*
X010346Y008812D01*
X010042Y008492D02*
X010042Y008372D01*
X009982Y008312D01*
X009922Y008312D01*
X009696Y008291D01*
X009696Y008094D02*
X009502Y008132D01*
X009382Y008132D01*
X009322Y008192D01*
X009322Y008672D01*
X009562Y008672D01*
X010162Y009272D01*
X010257Y009412D01*
X009862Y009572D02*
X009746Y009412D01*
X009862Y009572D02*
X009862Y009992D01*
X010762Y009992D01*
X011062Y010052D02*
X011062Y009092D01*
X010942Y008972D01*
X010857Y008812D01*
X011362Y009692D02*
X011362Y009752D01*
X011362Y009692D02*
X011662Y009692D01*
X011785Y009612D01*
X011662Y010052D02*
X011785Y010112D01*
X011662Y010052D02*
X011062Y010052D01*
X011962Y008132D02*
X012057Y008012D01*
X010042Y007232D02*
X010042Y007112D01*
X010042Y007232D02*
X009982Y007292D01*
X009922Y007292D01*
X009696Y007307D01*
X008902Y009872D02*
X008902Y010772D01*
X009002Y011152D01*
X008502Y011152D02*
X008422Y010772D01*
X008422Y010592D01*
X008302Y010472D01*
X008002Y009872D02*
X008002Y011152D01*
X007502Y011152D02*
X007582Y010772D01*
X007582Y010292D01*
X007702Y010172D01*
X008002Y009872D02*
X006922Y009872D01*
X006562Y009512D01*
X006562Y009452D01*
X006566Y009256D01*
X006172Y009256D02*
X006202Y009452D01*
X006202Y009932D01*
X005975Y009256D02*
X005962Y009032D01*
X005302Y009032D01*
X005302Y008912D01*
X005182Y008792D01*
X004402Y009392D02*
X004402Y009452D01*
X004162Y009692D01*
X004002Y009806D01*
X003922Y009392D02*
X004222Y009092D01*
X004002Y010318D02*
X004042Y010412D01*
X004042Y012032D02*
X004002Y012212D01*
X001522Y012992D02*
X001222Y012992D01*
X000923Y012993D01*
X000922Y012992D01*
X000922Y012812D01*
X000923Y012796D01*
X000922Y012752D01*
X000922Y012632D01*
X000923Y012600D01*
X000923Y013190D02*
X000922Y013232D01*
X000922Y013352D01*
X000923Y013387D01*
X000922Y013412D01*
X000922Y013532D01*
X000923Y013584D01*
X001222Y013592D01*
X001522Y013592D01*
X007002Y011152D02*
X007102Y010772D01*
X007102Y010412D01*
X007222Y010292D01*
X009242Y011672D02*
X009262Y011672D01*
D26*
X008302Y010472D03*
X007702Y010172D03*
X007222Y010292D03*
X006202Y009932D03*
X006742Y008612D03*
X007282Y008732D03*
X007762Y008732D03*
X008902Y009872D03*
X010762Y009992D03*
X011362Y009752D03*
X010882Y011672D03*
X010942Y012872D03*
X008842Y014432D03*
X005002Y009092D03*
X004402Y009392D03*
X003922Y009392D03*
X003562Y009092D03*
X003262Y007412D03*
X003802Y007112D03*
X004282Y006272D03*
X004702Y007052D03*
X003802Y005192D03*
X003022Y006272D03*
X002422Y005252D03*
X002662Y007352D03*
X005122Y004712D03*
X004822Y003272D03*
X004102Y003332D03*
X004882Y002432D03*
X006382Y000632D03*
X008422Y003632D03*
X009022Y004232D03*
X009982Y005192D03*
X010462Y005912D03*
X011242Y006692D03*
X008962Y006152D03*
X008662Y006512D03*
X006982Y005852D03*
X006562Y006272D03*
X003082Y002432D03*
X003442Y000512D03*
X011182Y003152D03*
X011362Y001772D03*
X001522Y012992D03*
X001522Y013592D03*
D27*
X004042Y012032D02*
X004042Y010412D01*
M02*
