G75*
G70*
%OFA0B0*%
%FSLAX24Y24*%
%IPPOS*%
%LPD*%
%AMOC8*
5,1,8,0,0,1.08239X$1,22.5*
%
%ADD10C,0.0000*%
%ADD11C,0.0030*%
%ADD12C,0.0010*%
%ADD13C,0.0080*%
%ADD14C,0.0160*%
%ADD15C,0.0040*%
%ADD16C,0.0050*%
%ADD17C,0.0060*%
D10*
X000179Y000212D02*
X000179Y015212D01*
X012679Y015212D01*
X012679Y000212D01*
X000179Y000212D01*
X000894Y001032D02*
X000923Y001112D01*
X000997Y001155D01*
X001081Y001140D01*
X001136Y001075D01*
X001136Y000989D01*
X001082Y000924D01*
X000997Y000909D01*
X000923Y000952D01*
X000894Y001032D01*
X000923Y001112D01*
X000997Y001155D01*
X001081Y001140D01*
X001136Y001075D01*
X001136Y000989D01*
X001082Y000924D01*
X000997Y000909D01*
X000923Y000952D01*
X000894Y001032D01*
X000894Y003631D02*
X000923Y003711D01*
X000997Y003754D01*
X001081Y003739D01*
X001136Y003674D01*
X001136Y003588D01*
X001082Y003523D01*
X000997Y003508D01*
X000923Y003551D01*
X000894Y003631D01*
X000923Y003711D01*
X000997Y003754D01*
X001081Y003739D01*
X001136Y003674D01*
X001136Y003588D01*
X001082Y003523D01*
X000997Y003508D01*
X000923Y003551D01*
X000894Y003631D01*
X000569Y014212D02*
X000606Y014421D01*
X000712Y014604D01*
X000874Y014740D01*
X001073Y014813D01*
X001285Y014813D01*
X001484Y014740D01*
X001646Y014604D01*
X001752Y014421D01*
X001789Y014212D01*
X001752Y014003D01*
X001646Y013820D01*
X001484Y013684D01*
X001285Y013611D01*
X001073Y013611D01*
X000874Y013684D01*
X000712Y013820D01*
X000606Y014003D01*
X000569Y014212D01*
X011069Y001212D02*
X011106Y001421D01*
X011212Y001604D01*
X011374Y001740D01*
X011573Y001813D01*
X011785Y001813D01*
X011984Y001740D01*
X012146Y001604D01*
X012252Y001421D01*
X012289Y001212D01*
X012252Y001003D01*
X012146Y000820D01*
X011984Y000684D01*
X011785Y000611D01*
X011573Y000611D01*
X011374Y000684D01*
X011212Y000820D01*
X011106Y001003D01*
X011069Y001212D01*
X011715Y011792D02*
X011744Y011872D01*
X011818Y011915D01*
X011902Y011900D01*
X011957Y011835D01*
X011957Y011749D01*
X011903Y011684D01*
X011818Y011669D01*
X011744Y011712D01*
X011715Y011792D01*
X011744Y011872D01*
X011818Y011915D01*
X011902Y011900D01*
X011957Y011835D01*
X011957Y011749D01*
X011903Y011684D01*
X011818Y011669D01*
X011744Y011712D01*
X011715Y011792D01*
X011715Y014391D02*
X011744Y014471D01*
X011818Y014514D01*
X011902Y014499D01*
X011957Y014434D01*
X011957Y014348D01*
X011903Y014283D01*
X011818Y014268D01*
X011744Y014311D01*
X011715Y014391D01*
X011744Y014471D01*
X011818Y014514D01*
X011902Y014499D01*
X011957Y014434D01*
X011957Y014348D01*
X011903Y014283D01*
X011818Y014268D01*
X011744Y014311D01*
X011715Y014391D01*
D11*
X009327Y013312D02*
X009327Y013127D01*
X009327Y013312D02*
X009265Y013374D01*
X009142Y013374D01*
X009080Y013312D01*
X008958Y013312D02*
X008958Y013127D01*
X008773Y013127D01*
X008712Y013188D01*
X008773Y013250D01*
X008958Y013250D01*
X008958Y013312D02*
X008897Y013374D01*
X008773Y013374D01*
X008589Y013374D02*
X008466Y013374D01*
X008528Y013435D02*
X008528Y013188D01*
X008589Y013127D01*
X008345Y013188D02*
X008345Y013497D01*
X008098Y013497D02*
X008098Y013188D01*
X008159Y013127D01*
X008283Y013127D01*
X008345Y013188D01*
X007607Y013312D02*
X007484Y013312D01*
X007362Y013312D02*
X007362Y013188D01*
X007301Y013127D01*
X007177Y013127D01*
X007116Y013188D01*
X007116Y013312D01*
X007177Y013374D01*
X007301Y013374D01*
X007362Y013312D01*
X007546Y013435D02*
X007546Y013127D01*
X007546Y013435D02*
X007607Y013497D01*
X006626Y013374D02*
X006626Y013065D01*
X006564Y013003D01*
X006502Y013003D01*
X006441Y013127D02*
X006626Y013127D01*
X006441Y013127D02*
X006379Y013188D01*
X006379Y013374D01*
X006257Y013374D02*
X006134Y013374D01*
X006195Y013435D02*
X006195Y013188D01*
X006257Y013127D01*
X006011Y013127D02*
X005888Y013127D01*
X005950Y013127D02*
X005950Y013374D01*
X005888Y013374D01*
X005767Y013374D02*
X005581Y013374D01*
X005520Y013312D01*
X005581Y013250D01*
X005705Y013250D01*
X005767Y013188D01*
X005705Y013127D01*
X005520Y013127D01*
X005398Y013374D02*
X005336Y013374D01*
X005213Y013250D01*
X005091Y013250D02*
X004844Y013250D01*
X004844Y013188D02*
X004844Y013312D01*
X004906Y013374D01*
X005030Y013374D01*
X005091Y013312D01*
X005091Y013250D01*
X005030Y013127D02*
X004906Y013127D01*
X004844Y013188D01*
X004723Y013374D02*
X004600Y013127D01*
X004476Y013374D01*
X004292Y013374D02*
X004292Y013127D01*
X004231Y013127D02*
X004354Y013127D01*
X004109Y013127D02*
X004109Y013312D01*
X004048Y013374D01*
X003862Y013374D01*
X003862Y013127D01*
X003741Y013188D02*
X003741Y013497D01*
X003494Y013497D02*
X003494Y013188D01*
X003556Y013127D01*
X003679Y013127D01*
X003741Y013188D01*
X004231Y013374D02*
X004292Y013374D01*
X004292Y013497D02*
X004292Y013559D01*
X005213Y013374D02*
X005213Y013127D01*
X005950Y013497D02*
X005950Y013559D01*
X009080Y013497D02*
X009080Y013127D01*
D12*
X008862Y008632D02*
X008812Y008632D01*
X008787Y008607D01*
X008787Y008582D01*
X008812Y008557D01*
X008887Y008557D01*
X008887Y008607D02*
X008862Y008632D01*
X008887Y008607D02*
X008887Y008507D01*
X008862Y008482D01*
X008812Y008482D01*
X008787Y008507D01*
X008739Y008482D02*
X008639Y008482D01*
X008689Y008482D02*
X008689Y008632D01*
X008639Y008582D01*
X008592Y008607D02*
X008567Y008632D01*
X008517Y008632D01*
X008492Y008607D01*
X008492Y008507D01*
X008517Y008482D01*
X008567Y008482D01*
X008592Y008507D01*
X008749Y007861D02*
X008774Y007811D01*
X008824Y007761D01*
X008824Y007836D01*
X008849Y007861D01*
X008874Y007861D01*
X008899Y007836D01*
X008899Y007786D01*
X008874Y007761D01*
X008824Y007761D01*
X008849Y007714D02*
X008824Y007689D01*
X008824Y007639D01*
X008799Y007614D01*
X008774Y007614D01*
X008749Y007639D01*
X008749Y007689D01*
X008774Y007714D01*
X008724Y007664D02*
X008924Y007664D01*
X008899Y007639D02*
X008899Y007689D01*
X008874Y007714D01*
X008849Y007714D01*
X008899Y007639D02*
X008874Y007614D01*
X008874Y007567D02*
X008749Y007567D01*
X008749Y007467D02*
X008874Y007467D01*
X008899Y007492D01*
X008899Y007542D01*
X008874Y007567D01*
X008199Y007542D02*
X008199Y007492D01*
X008174Y007467D01*
X008074Y007467D01*
X008049Y007492D01*
X008049Y007542D01*
X008074Y007567D01*
X008099Y007614D02*
X008049Y007664D01*
X008199Y007664D01*
X008199Y007614D02*
X008199Y007714D01*
X008174Y007761D02*
X008199Y007786D01*
X008199Y007836D01*
X008174Y007861D01*
X008149Y007861D01*
X008124Y007836D01*
X008124Y007811D01*
X008124Y007836D02*
X008099Y007861D01*
X008074Y007861D01*
X008049Y007836D01*
X008049Y007786D01*
X008074Y007761D01*
X008174Y007567D02*
X008199Y007542D01*
X007499Y007542D02*
X007499Y007492D01*
X007474Y007467D01*
X007374Y007467D01*
X007349Y007492D01*
X007349Y007542D01*
X007374Y007567D01*
X007399Y007614D02*
X007349Y007664D01*
X007499Y007664D01*
X007499Y007614D02*
X007499Y007714D01*
X007474Y007761D02*
X007449Y007761D01*
X007424Y007786D01*
X007424Y007836D01*
X007449Y007861D01*
X007474Y007861D01*
X007499Y007836D01*
X007499Y007786D01*
X007474Y007761D01*
X007424Y007786D02*
X007399Y007761D01*
X007374Y007761D01*
X007349Y007786D01*
X007349Y007836D01*
X007374Y007861D01*
X007399Y007861D01*
X007424Y007836D01*
X007474Y007567D02*
X007499Y007542D01*
X006824Y007664D02*
X006624Y007664D01*
X006649Y007639D02*
X006649Y007689D01*
X006674Y007714D01*
X006724Y007689D02*
X006724Y007639D01*
X006699Y007614D01*
X006674Y007614D01*
X006649Y007639D01*
X006649Y007567D02*
X006774Y007567D01*
X006799Y007542D01*
X006799Y007492D01*
X006774Y007467D01*
X006649Y007467D01*
X006774Y007614D02*
X006799Y007639D01*
X006799Y007689D01*
X006774Y007714D01*
X006749Y007714D01*
X006724Y007689D01*
X006724Y007761D02*
X006724Y007861D01*
X006799Y007836D02*
X006649Y007836D01*
X006724Y007761D01*
X006099Y007761D02*
X006074Y007761D01*
X005974Y007861D01*
X005949Y007861D01*
X005949Y007761D01*
X005949Y007664D02*
X006099Y007664D01*
X006099Y007614D02*
X006099Y007714D01*
X005999Y007614D02*
X005949Y007664D01*
X005974Y007567D02*
X005949Y007542D01*
X005949Y007492D01*
X005974Y007467D01*
X006074Y007467D01*
X006099Y007492D01*
X006099Y007542D01*
X006074Y007567D01*
X005399Y007542D02*
X005399Y007492D01*
X005374Y007467D01*
X005274Y007467D01*
X005249Y007492D01*
X005249Y007542D01*
X005274Y007567D01*
X005299Y007614D02*
X005249Y007664D01*
X005399Y007664D01*
X005399Y007614D02*
X005399Y007714D01*
X005374Y007761D02*
X005274Y007861D01*
X005374Y007861D01*
X005399Y007836D01*
X005399Y007786D01*
X005374Y007761D01*
X005274Y007761D01*
X005249Y007786D01*
X005249Y007836D01*
X005274Y007861D01*
X005374Y007567D02*
X005399Y007542D01*
X004281Y007817D02*
X004181Y007717D01*
X004181Y007692D01*
X004134Y007717D02*
X004109Y007692D01*
X004059Y007692D01*
X004034Y007717D01*
X004034Y007817D01*
X004059Y007842D01*
X004109Y007842D01*
X004134Y007817D01*
X004181Y007842D02*
X004281Y007842D01*
X004281Y007817D01*
X004256Y008492D02*
X004281Y008517D01*
X004281Y008542D01*
X004256Y008567D01*
X004181Y008567D01*
X004181Y008517D01*
X004206Y008492D01*
X004256Y008492D01*
X004181Y008567D02*
X004231Y008617D01*
X004281Y008642D01*
X004134Y008617D02*
X004109Y008642D01*
X004059Y008642D01*
X004034Y008617D01*
X004034Y008517D01*
X004059Y008492D01*
X004109Y008492D01*
X004134Y008517D01*
X002299Y009292D02*
X002299Y009342D01*
X002274Y009367D01*
X002274Y009414D02*
X002299Y009439D01*
X002299Y009489D01*
X002274Y009514D01*
X002224Y009514D01*
X002199Y009489D01*
X002199Y009464D01*
X002224Y009414D01*
X002149Y009414D01*
X002149Y009514D01*
X002174Y009367D02*
X002149Y009342D01*
X002149Y009292D01*
X002174Y009267D01*
X002274Y009267D01*
X002299Y009292D01*
X001879Y008942D02*
X001854Y008967D01*
X001804Y008967D01*
X001779Y008942D01*
X001731Y008942D02*
X001706Y008967D01*
X001656Y008967D01*
X001631Y008942D01*
X001631Y008917D01*
X001656Y008892D01*
X001706Y008892D01*
X001731Y008867D01*
X001731Y008842D01*
X001706Y008817D01*
X001656Y008817D01*
X001631Y008842D01*
X001584Y008842D02*
X001584Y008967D01*
X001484Y008967D02*
X001484Y008842D01*
X001509Y008817D01*
X001559Y008817D01*
X001584Y008842D01*
X001681Y008792D02*
X001681Y008992D01*
X001779Y008817D02*
X001879Y008817D01*
X001879Y008917D02*
X001879Y008942D01*
X001879Y008917D02*
X001779Y008817D01*
X003184Y006219D02*
X003209Y006219D01*
X003234Y006194D01*
X003234Y006144D01*
X003209Y006119D01*
X003184Y006119D01*
X003159Y006144D01*
X003159Y006194D01*
X003184Y006219D01*
X003234Y006194D02*
X003259Y006219D01*
X003284Y006219D01*
X003309Y006194D01*
X003309Y006144D01*
X003284Y006119D01*
X003259Y006119D01*
X003234Y006144D01*
X003284Y006072D02*
X003309Y006047D01*
X003309Y005997D01*
X003284Y005972D01*
X003184Y005972D01*
X003159Y005997D01*
X003159Y006047D01*
X003184Y006072D01*
X005639Y006007D02*
X005639Y005907D01*
X005664Y005882D01*
X005714Y005882D01*
X005739Y005907D01*
X005787Y005907D02*
X005812Y005882D01*
X005862Y005882D01*
X005887Y005907D01*
X005887Y006007D01*
X005862Y006032D01*
X005812Y006032D01*
X005787Y006007D01*
X005787Y005982D01*
X005812Y005957D01*
X005887Y005957D01*
X005739Y006007D02*
X005714Y006032D01*
X005664Y006032D01*
X005639Y006007D01*
X007259Y004219D02*
X007284Y004169D01*
X007334Y004119D01*
X007334Y004194D01*
X007359Y004219D01*
X007384Y004219D01*
X007409Y004194D01*
X007409Y004144D01*
X007384Y004119D01*
X007334Y004119D01*
X007409Y004072D02*
X007409Y003972D01*
X007409Y004022D02*
X007259Y004022D01*
X007309Y003972D01*
X007284Y003925D02*
X007259Y003900D01*
X007259Y003850D01*
X007284Y003825D01*
X007384Y003825D01*
X007409Y003850D01*
X007409Y003900D01*
X007384Y003925D01*
X007959Y003900D02*
X007959Y003850D01*
X007984Y003825D01*
X008084Y003825D01*
X008109Y003850D01*
X008109Y003900D01*
X008084Y003925D01*
X008109Y003972D02*
X008009Y004072D01*
X007984Y004072D01*
X007959Y004047D01*
X007959Y003997D01*
X007984Y003972D01*
X007984Y003925D02*
X007959Y003900D01*
X008109Y003972D02*
X008109Y004072D01*
X008109Y004119D02*
X008109Y004219D01*
X008109Y004169D02*
X007959Y004169D01*
X008009Y004119D01*
X008659Y004169D02*
X008709Y004119D01*
X008734Y004072D02*
X008759Y004047D01*
X008759Y003972D01*
X008809Y003972D02*
X008659Y003972D01*
X008659Y004047D01*
X008684Y004072D01*
X008734Y004072D01*
X008759Y004022D02*
X008809Y004072D01*
X008809Y004119D02*
X008809Y004219D01*
X008809Y004169D02*
X008659Y004169D01*
X008629Y003142D02*
X008729Y003142D01*
X008704Y003092D02*
X008729Y003067D01*
X008729Y003017D01*
X008704Y002992D01*
X008654Y002992D01*
X008629Y003017D01*
X008629Y003067D02*
X008679Y003092D01*
X008704Y003092D01*
X008629Y003067D02*
X008629Y003142D01*
X008531Y003142D02*
X008531Y002992D01*
X008481Y002992D02*
X008581Y002992D01*
X008481Y003092D02*
X008531Y003142D01*
X008434Y003117D02*
X008409Y003142D01*
X008359Y003142D01*
X008334Y003117D01*
X008334Y003017D01*
X008359Y002992D01*
X008409Y002992D01*
X008434Y003017D01*
X007409Y002819D02*
X007409Y002719D01*
X007309Y002819D01*
X007284Y002819D01*
X007259Y002794D01*
X007259Y002744D01*
X007284Y002719D01*
X007284Y002672D02*
X007259Y002647D01*
X007259Y002597D01*
X007284Y002572D01*
X007284Y002525D02*
X007259Y002500D01*
X007259Y002450D01*
X007284Y002425D01*
X007384Y002425D01*
X007409Y002450D01*
X007409Y002500D01*
X007384Y002525D01*
X007409Y002572D02*
X007309Y002672D01*
X007284Y002672D01*
X007409Y002672D02*
X007409Y002572D01*
X007393Y000983D02*
X007368Y000983D01*
X007343Y000958D01*
X007343Y000907D01*
X007368Y000882D01*
X007368Y000835D02*
X007419Y000835D01*
X007444Y000810D01*
X007444Y000735D01*
X007494Y000735D02*
X007343Y000735D01*
X007343Y000810D01*
X007368Y000835D01*
X007444Y000785D02*
X007494Y000835D01*
X007494Y000882D02*
X007393Y000983D01*
X007494Y000983D02*
X007494Y000882D01*
X009346Y001197D02*
X009371Y001172D01*
X009471Y001172D01*
X009496Y001197D01*
X009496Y001247D01*
X009471Y001272D01*
X009496Y001319D02*
X009396Y001419D01*
X009371Y001419D01*
X009346Y001394D01*
X009346Y001344D01*
X009371Y001319D01*
X009371Y001272D02*
X009346Y001247D01*
X009346Y001197D01*
X009496Y001319D02*
X009496Y001419D01*
X009509Y005292D02*
X009534Y005317D01*
X009509Y005292D02*
X009459Y005292D01*
X009434Y005317D01*
X009434Y005417D01*
X009459Y005442D01*
X009509Y005442D01*
X009534Y005417D01*
X009581Y005417D02*
X009606Y005442D01*
X009656Y005442D01*
X009681Y005417D01*
X009681Y005392D01*
X009581Y005292D01*
X009681Y005292D01*
X009729Y005317D02*
X009829Y005417D01*
X009829Y005317D01*
X009804Y005292D01*
X009754Y005292D01*
X009729Y005317D01*
X009729Y005417D01*
X009754Y005442D01*
X009804Y005442D01*
X009829Y005417D01*
X009784Y006025D02*
X009809Y006050D01*
X009809Y006100D01*
X009784Y006125D01*
X009809Y006172D02*
X009809Y006272D01*
X009809Y006222D02*
X009659Y006222D01*
X009709Y006172D01*
X009684Y006125D02*
X009659Y006100D01*
X009659Y006050D01*
X009684Y006025D01*
X009784Y006025D01*
X009734Y006319D02*
X009734Y006419D01*
X009809Y006394D02*
X009659Y006394D01*
X009734Y006319D01*
X007087Y008482D02*
X006987Y008482D01*
X006939Y008482D02*
X006839Y008482D01*
X006889Y008482D02*
X006889Y008632D01*
X006839Y008582D01*
X006792Y008607D02*
X006767Y008632D01*
X006717Y008632D01*
X006692Y008607D01*
X006692Y008507D01*
X006717Y008482D01*
X006767Y008482D01*
X006792Y008507D01*
X006987Y008582D02*
X007037Y008632D01*
X007037Y008482D01*
X003799Y001014D02*
X003799Y000914D01*
X003799Y000964D02*
X003649Y000964D01*
X003699Y000914D01*
X003674Y000867D02*
X003649Y000842D01*
X003649Y000792D01*
X003674Y000767D01*
X003774Y000767D01*
X003799Y000792D01*
X003799Y000842D01*
X003774Y000867D01*
D13*
X005478Y000421D02*
X006580Y000421D01*
X006265Y000716D02*
X006282Y000758D01*
X006324Y000775D01*
X006366Y000758D01*
X006383Y000716D01*
X006366Y000674D01*
X006324Y000657D01*
X006282Y000674D01*
X006265Y000716D01*
X006580Y001602D02*
X005478Y001602D01*
X005719Y002772D02*
X006039Y002772D01*
X006359Y003252D02*
X006359Y003572D01*
X006039Y004052D02*
X005719Y004052D01*
X005399Y003572D02*
X005399Y003252D01*
X006574Y004956D02*
X006810Y004956D01*
X006574Y004956D02*
X006574Y005192D01*
X006574Y006531D02*
X006574Y006767D01*
X006810Y006767D01*
X008148Y006767D02*
X008385Y006767D01*
X008385Y006531D01*
X008385Y005192D02*
X008385Y004956D01*
X008148Y004956D01*
X003266Y007024D02*
X003070Y007024D01*
X003266Y007024D02*
X003266Y007221D01*
X003266Y008402D02*
X003266Y008599D01*
X003070Y008599D01*
X001889Y008599D02*
X001692Y008402D01*
X001692Y007221D02*
X001692Y007024D01*
X001889Y007024D01*
D14*
X008209Y006592D03*
D15*
X008462Y006314D02*
X009076Y006314D01*
X008999Y006238D02*
X008999Y006391D01*
X008922Y006468D01*
X008846Y006468D01*
X008769Y006391D01*
X008769Y006238D01*
X008692Y006161D01*
X008615Y006161D01*
X008539Y006238D01*
X008539Y006391D01*
X008615Y006468D01*
X008615Y006621D02*
X008539Y006698D01*
X008539Y006851D01*
X008615Y006928D01*
X008692Y006928D01*
X008769Y006851D01*
X008846Y006928D01*
X008922Y006928D01*
X008999Y006851D01*
X008999Y006698D01*
X008922Y006621D01*
X008769Y006775D02*
X008769Y006851D01*
X008999Y006238D02*
X008922Y006161D01*
X008922Y006007D02*
X008539Y006007D01*
X008539Y005701D02*
X008922Y005701D01*
X008999Y005777D01*
X008999Y005931D01*
X008922Y006007D01*
X005199Y003152D02*
X005122Y003152D01*
X004815Y003459D01*
X004739Y003459D01*
X004739Y003152D01*
X004815Y002999D02*
X004739Y002922D01*
X004739Y002769D01*
X004815Y002692D01*
X004892Y002692D01*
X004969Y002769D01*
X004969Y002922D01*
X005046Y002999D01*
X005122Y002999D01*
X005199Y002922D01*
X005199Y002769D01*
X005122Y002692D01*
X005122Y002539D02*
X005199Y002462D01*
X005199Y002308D01*
X005122Y002232D01*
X004739Y002232D01*
X004739Y002539D02*
X005122Y002539D01*
X005276Y002845D02*
X004662Y002845D01*
X003164Y001702D02*
X003164Y001395D01*
X002857Y001702D01*
X002780Y001702D01*
X002704Y001625D01*
X002704Y001471D01*
X002780Y001395D01*
X002780Y001241D02*
X002934Y001241D01*
X003010Y001164D01*
X003010Y000934D01*
X003164Y000934D02*
X002704Y000934D01*
X002704Y001164D01*
X002780Y001241D01*
X009694Y013608D02*
X010154Y013608D01*
X010001Y013608D02*
X010001Y013838D01*
X009924Y013915D01*
X009771Y013915D01*
X009694Y013838D01*
X009694Y013608D01*
X009847Y014069D02*
X009694Y014222D01*
X010154Y014222D01*
X010154Y014069D02*
X010154Y014375D01*
D16*
X010501Y014509D02*
X010501Y014096D01*
X010501Y014509D02*
X011997Y014509D01*
X011997Y014096D01*
X011997Y012088D02*
X011997Y011674D01*
X010501Y011674D01*
X010501Y012088D01*
X002357Y003749D02*
X002357Y003336D01*
X002357Y003749D02*
X000861Y003749D01*
X000861Y003336D01*
X000861Y001328D02*
X000861Y000914D01*
X002357Y000914D01*
X002357Y001328D01*
D17*
X007587Y001148D02*
X007587Y000912D01*
X008060Y000912D02*
X008060Y001148D01*
M02*
