G75*
G70*
%OFA0B0*%
%FSLAX24Y24*%
%IPPOS*%
%LPD*%
%AMOC8*
5,1,8,0,0,1.08239X$1,22.5*
%
%ADD10R,0.0354X0.0276*%
%ADD11R,0.0276X0.0354*%
%ADD12R,0.0146X0.0256*%
%ADD13R,0.0256X0.0146*%
%ADD14R,0.0197X0.0197*%
%ADD15R,0.0098X0.0197*%
%ADD16R,0.0197X0.0098*%
%ADD17R,0.0906X0.0906*%
%ADD18R,0.0197X0.0276*%
%ADD19R,0.0709X0.0315*%
%ADD20R,0.0630X0.0118*%
%ADD21R,0.0709X0.0118*%
%ADD22R,0.0402X0.0161*%
%ADD23R,0.0472X0.0315*%
D10*
X004079Y000856D03*
X004079Y001368D03*
X006979Y002256D03*
X006979Y002768D03*
X006979Y003656D03*
X006979Y004168D03*
X007679Y004168D03*
X007679Y003656D03*
X008379Y003656D03*
X008379Y004168D03*
X009379Y005856D03*
X009379Y006368D03*
X009179Y007556D03*
X009179Y008068D03*
X008479Y008068D03*
X008479Y007556D03*
X007779Y007556D03*
X007779Y008068D03*
X007079Y008068D03*
X007079Y007556D03*
X006379Y007556D03*
X006379Y008068D03*
X005679Y008068D03*
X005679Y007556D03*
X002879Y006168D03*
X002879Y005656D03*
X002579Y009356D03*
X002579Y009868D03*
X009066Y001368D03*
X009066Y000856D03*
D11*
X008935Y002712D03*
X008423Y002712D03*
X009523Y005012D03*
X010035Y005012D03*
X008835Y008912D03*
X008323Y008912D03*
X007035Y008912D03*
X006523Y008912D03*
X004635Y008212D03*
X004123Y008212D03*
X004123Y007412D03*
X004635Y007412D03*
X005323Y006312D03*
X005835Y006312D03*
D12*
X002863Y007123D03*
X002607Y007123D03*
X002351Y007123D03*
X002095Y007123D03*
X002095Y008501D03*
X002351Y008501D03*
X002607Y008501D03*
X002863Y008501D03*
D13*
X003168Y008196D03*
X003168Y007940D03*
X003168Y007684D03*
X003168Y007428D03*
X001790Y007428D03*
X001790Y007684D03*
X001790Y007940D03*
X001790Y008196D03*
D14*
X002479Y007812D03*
D15*
X006987Y006590D03*
X007184Y006590D03*
X007381Y006590D03*
X007577Y006590D03*
X007774Y006590D03*
X007971Y006590D03*
X007971Y005133D03*
X007774Y005133D03*
X007577Y005133D03*
X007381Y005133D03*
X007184Y005133D03*
X006987Y005133D03*
D16*
X006751Y005370D03*
X006751Y005566D03*
X006751Y005763D03*
X006751Y005960D03*
X006751Y006157D03*
X006751Y006354D03*
X008207Y006354D03*
X008207Y006157D03*
X008207Y005960D03*
X008207Y005763D03*
X008207Y005566D03*
X008207Y005370D03*
D17*
X007479Y005862D03*
D18*
X006253Y003884D03*
X005505Y003884D03*
X005505Y002939D03*
X006253Y002939D03*
D19*
X001609Y003906D03*
X001609Y000757D03*
X011249Y011517D03*
X011249Y014666D03*
D20*
X000900Y001446D03*
X000900Y001643D03*
X000900Y001840D03*
X000900Y002036D03*
X000900Y002233D03*
X000900Y002430D03*
X000900Y002627D03*
X000900Y002824D03*
X000900Y003021D03*
X000900Y003217D03*
X002318Y003217D03*
X002318Y003021D03*
X002318Y002824D03*
X002318Y002627D03*
X002318Y002430D03*
X002318Y002233D03*
X002318Y002036D03*
X002318Y001840D03*
X002318Y001643D03*
X010540Y012403D03*
X010540Y012600D03*
X010540Y012796D03*
X010540Y012993D03*
X010540Y013190D03*
X010540Y013387D03*
X010540Y013584D03*
X010540Y013781D03*
X010540Y013977D03*
X011958Y013977D03*
X011958Y013781D03*
X011958Y013584D03*
X011958Y013387D03*
X011958Y013190D03*
X011958Y012993D03*
X011958Y012796D03*
X011958Y012600D03*
X011958Y012403D03*
X011958Y012206D03*
D21*
X010501Y012206D03*
X002357Y001446D03*
D22*
X005084Y001396D03*
X005084Y001140D03*
X005084Y000884D03*
X005084Y000628D03*
X006974Y000628D03*
X006974Y000884D03*
X006974Y001140D03*
X006974Y001396D03*
D23*
X007824Y001384D03*
X007824Y000676D03*
M02*
