G75*
G70*
%OFA0B0*%
%FSLAX24Y24*%
%IPPOS*%
%LPD*%
%AMOC8*
5,1,8,0,0,1.08239X$1,22.5*
%
%ADD10R,0.0354X0.0276*%
%ADD11R,0.1000X0.0400*%
%ADD12R,0.0472X0.0118*%
%ADD13R,0.0118X0.0472*%
%ADD14R,0.0276X0.0354*%
%ADD15R,0.0189X0.0236*%
%ADD16R,0.0709X0.0315*%
%ADD17R,0.0630X0.0118*%
%ADD18R,0.0709X0.0118*%
%ADD19R,0.0260X0.0800*%
%ADD20R,0.0118X0.0512*%
%ADD21R,0.1417X0.0866*%
%ADD22R,0.0276X0.0197*%
D10*
X004002Y009806D03*
X004002Y010318D03*
X009502Y004668D03*
X009502Y004156D03*
X010202Y004156D03*
X010202Y004668D03*
X010602Y007456D03*
X010602Y007968D03*
D11*
X004002Y012212D03*
X004002Y014812D03*
D12*
X005207Y008488D03*
X005207Y008291D03*
X005207Y008094D03*
X005207Y007897D03*
X005207Y007701D03*
X005207Y007504D03*
X005207Y007307D03*
X005207Y007110D03*
X005207Y006913D03*
X005207Y006716D03*
X005207Y006520D03*
X005207Y006323D03*
X005207Y006126D03*
X005207Y005929D03*
X005207Y005732D03*
X005207Y005535D03*
X009696Y005535D03*
X009696Y005732D03*
X009696Y005929D03*
X009696Y006126D03*
X009696Y006323D03*
X009696Y006520D03*
X009696Y006716D03*
X009696Y006913D03*
X009696Y007110D03*
X009696Y007307D03*
X009696Y007504D03*
X009696Y007701D03*
X009696Y007897D03*
X009696Y008094D03*
X009696Y008291D03*
X009696Y008488D03*
D13*
X008928Y009256D03*
X008731Y009256D03*
X008534Y009256D03*
X008337Y009256D03*
X008141Y009256D03*
X007944Y009256D03*
X007747Y009256D03*
X007550Y009256D03*
X007353Y009256D03*
X007156Y009256D03*
X006959Y009256D03*
X006763Y009256D03*
X006566Y009256D03*
X006369Y009256D03*
X006172Y009256D03*
X005975Y009256D03*
X005975Y004768D03*
X006172Y004768D03*
X006369Y004768D03*
X006566Y004768D03*
X006763Y004768D03*
X006959Y004768D03*
X007156Y004768D03*
X007353Y004768D03*
X007550Y004768D03*
X007747Y004768D03*
X007944Y004768D03*
X008141Y004768D03*
X008337Y004768D03*
X008534Y004768D03*
X008731Y004768D03*
X008928Y004768D03*
D14*
X011546Y004812D03*
X012057Y004812D03*
X012057Y005612D03*
X011546Y005612D03*
X011546Y006312D03*
X012057Y006312D03*
X012057Y007112D03*
X011546Y007112D03*
X011546Y008012D03*
X012057Y008012D03*
X010857Y008812D03*
X010346Y008812D03*
X010257Y009412D03*
X009746Y009412D03*
X007657Y014612D03*
X007146Y014612D03*
X003157Y006862D03*
X002646Y006862D03*
D15*
X002602Y002925D03*
X003102Y002925D03*
X003602Y002925D03*
X004102Y002925D03*
X004102Y005799D03*
X003602Y005799D03*
X003102Y005799D03*
X002602Y005799D03*
D16*
X001632Y011517D03*
X001632Y014666D03*
X011272Y003906D03*
X011272Y000757D03*
D17*
X011980Y001446D03*
X011980Y001643D03*
X011980Y001840D03*
X011980Y002036D03*
X011980Y002233D03*
X011980Y002430D03*
X011980Y002627D03*
X011980Y002824D03*
X011980Y003021D03*
X011980Y003217D03*
X010563Y003217D03*
X010563Y003021D03*
X010563Y002824D03*
X010563Y002627D03*
X010563Y002430D03*
X010563Y002233D03*
X010563Y002036D03*
X010563Y001840D03*
X010563Y001643D03*
X002340Y012403D03*
X002340Y012600D03*
X002340Y012796D03*
X002340Y012993D03*
X002340Y013190D03*
X002340Y013387D03*
X002340Y013584D03*
X002340Y013781D03*
X002340Y013977D03*
X000923Y013977D03*
X000923Y013781D03*
X000923Y013584D03*
X000923Y013387D03*
X000923Y013190D03*
X000923Y012993D03*
X000923Y012796D03*
X000923Y012600D03*
X000923Y012403D03*
X000923Y012206D03*
D18*
X002380Y012206D03*
X010524Y001446D03*
D19*
X010502Y011152D03*
X010002Y011152D03*
X009502Y011152D03*
X009002Y011152D03*
X008502Y011152D03*
X008002Y011152D03*
X007502Y011152D03*
X007002Y011152D03*
X007002Y013572D03*
X007502Y013572D03*
X008002Y013572D03*
X008502Y013572D03*
X009002Y013572D03*
X009502Y013572D03*
X010002Y013572D03*
X010502Y013572D03*
D20*
X007687Y002462D03*
X007491Y002462D03*
X007294Y002462D03*
X007097Y002462D03*
X006900Y002462D03*
X006703Y002462D03*
X006506Y002462D03*
X006309Y002462D03*
X006113Y002462D03*
X005916Y002462D03*
D21*
X004813Y001182D03*
X008790Y001182D03*
D22*
X011785Y008612D03*
X012218Y008612D03*
X012218Y009112D03*
X011785Y009112D03*
X011785Y009612D03*
X012218Y009612D03*
X012218Y010112D03*
X011785Y010112D03*
M02*
